<?xml version="1.0" encoding="UTF-8"?>
<svg width="33px" height="36px" viewBox="0 0 33 36" version="1.1" xmlns="http://www.w3.org/2000/svg" xmlns:xlink="http://www.w3.org/1999/xlink">
    <!-- Generator: Sketch 51.3 (57544) - http://www.bohemiancoding.com/sketch -->
    <title>ic-technology-ms-sql</title>
    <desc>Created with Sketch.</desc>
    <defs></defs>
    <g id="Page-1" stroke="none" stroke-width="1" fill="none" fill-rule="evenodd">
        <g id="ic-technology-ms-sql" fill="#252B33" fill-rule="nonzero">
            <path d="M13.3777248,0.000379622253 C13.4377804,0.00580745646 13.4486721,0.0275941799 13.5416295,0.39814438 C13.7111566,1.00849931 14.0173591,1.8585082 14.3398992,2.59418077 C14.7553967,3.54236812 15.4661547,4.94830282 16.1113357,6.0817904 L16.220555,6.27797143 C17.4014959,6.45779357 18.8558382,6.70842884 19.5173819,6.83927482 C23.0273529,7.53134881 25.7994123,8.46317728 27.9426284,9.65652181 C29.5009207,10.5284431 30.7747434,11.5801111 31.8244041,12.8770619 C32.185292,13.3239033 32.4860991,13.7434548 32.9234052,14.419195 L33,14.5390848 L32.5023862,14.6154263 C29.2827625,15.1062473 24.4248986,16.2817427 20.0317514,17.5823137 C20.0337223,17.6234101 20.0408655,17.6844225 20.0531922,17.7488949 C20.1897668,18.5281661 20.2772533,19.3237207 20.3264927,20.3045756 C20.3592939,20.9040497 20.3429563,22.6750816 20.3046085,23.2036924 C20.1570413,25.0945387 19.9329046,26.6912266 19.6486115,27.8900241 C19.1729828,29.8680928 18.2982193,32.1840692 17.0844521,34.6526784 C16.7290101,35.3773947 16.4228328,35.9604095 16.3790391,35.9877497 C16.3572305,36.0040834 15.8213698,36.0040834 15.4223106,35.9877497 C13.4486216,35.9114082 9.86195501,35.4046093 8.00855356,34.9359309 C6.89324015,34.6580559 5.41159303,34.1622132 4.53128281,33.7752288 C2.80363996,33.0177695 1.32194242,31.906144 0.578383337,30.8163304 C-0.00114497985,29.9607178 -0.148838223,29.0343674 0.151893256,28.1188476 C0.321395078,27.6119984 0.715033624,26.9526422 1.21259698,26.3314316 C1.54607915,25.9173582 2.20217701,25.263455 2.64500461,24.9146663 C2.67255672,24.8928561 2.70068151,24.870474 2.72935203,24.8475455 L2.67233467,24.8656651 C6.37374215,21.8358279 8.77397165,19.1057027 9.91119449,16.6316908 C10.5508288,15.2529958 10.8078675,14.065054 10.7750663,12.7136238 C10.720381,10.6101621 10.1353312,9.08433762 8.79041002,7.53677665 C8.4951496,7.19886884 6.06216941,4.83389111 6.06216941,4.83389111 C5.82711579,4.61587311 5.61939223,4.40338345 5.54824331,4.22906453 C5.51928696,4.15758175 5.50528413,4.09198961 5.50053324,4.03386479 L5.4826663,4.01644923 C5.4826663,3.95106393 5.49365884,3.88567863 5.51551784,3.83117413 C5.51902986,3.82257154 5.5236269,3.81318631 5.52923017,3.8030969 C5.54367962,3.77073028 5.55366394,3.75488291 5.55366394,3.75488291 C5.55430719,3.75735991 5.55496326,3.75982804 5.55563206,3.76228733 C5.67345161,3.58805025 5.99242244,3.28016744 6.25355545,3.09550156 C7.06276718,2.52889598 8.37486205,1.87494248 10.0643336,1.18824606 C11.3163225,0.681522558 13.2573112,-0.015979267 13.3775988,0.000279106805 L13.3777248,0.000379622253 Z M17.4452643,32.2221143 C17.4015463,32.2275673 17.2593745,32.2874996 17.0898979,32.363816 C16.0128819,32.8651116 14.9466819,33.2738326 13.869565,33.6007842 C13.0166857,33.8623505 12.1747233,34.0748402 10.4250954,34.4671771 L9.61056386,34.6525779 L9.74176831,34.6797924 C10.3158004,34.8105127 12.6012134,35.208378 13.9625225,35.4154398 C14.7444546,35.5299018 16.0292446,35.7097491 16.1222021,35.7151015 C16.1605499,35.720655 16.1878043,35.676981 16.2587768,35.5026119 C16.5814933,34.7288439 17.4671485,32.2766691 17.4452643,32.2221143 Z M11.5952454,30.6036899 C11.5952454,30.6091429 11.4420811,30.8325385 11.2617128,31.1050861 C10.611086,32.0968721 9.82917911,33.1431122 9.04192723,34.0804188 C8.8833423,34.265719 8.75213786,34.4346352 8.75213786,34.4454658 C8.75213786,34.4672525 8.93263221,34.5163794 8.9872419,34.5054232 C9.00910091,34.5000205 9.38090566,34.3964645 9.81284158,34.2711469 C12.1528643,33.6008345 15.023201,32.7562031 15.9636676,32.4619944 C16.5541633,32.2767193 17.3577779,32.0097 17.3961257,31.9878882 C17.4180099,31.9715293 17.3524077,31.9605731 17.2321201,31.9497174 C16.4392963,31.8843573 15.0943499,31.6554836 14.1648759,31.4211318 C13.410299,31.2303786 12.8472595,31.0614876 12.1364007,30.7945185 C11.8411907,30.685409 11.6006156,30.5982872 11.5952454,30.6036899 Z M10.6329511,30.631005 C10.6274487,30.6254767 10.4907984,30.6636474 10.3322135,30.712699 C9.4628202,30.9851461 8.13428695,31.361099 5.7395285,32.0096498 C4.83746013,32.254807 4.08840478,32.4565163 4.07748788,32.4619442 C4.03379509,32.4727747 4.58049708,32.8215633 5.01782842,33.0559151 C5.36777417,33.2411902 5.83795705,33.4591077 6.29177719,33.6389549 C6.65811089,33.7860593 8.04132946,34.2710966 8.23821176,34.3256011 L8.32020194,34.3474129 L8.47878686,34.0694626 C8.57169393,33.9169304 8.73569948,33.6444079 8.84504493,33.4700387 C8.93436625,33.3301575 9.14936277,32.9892073 9.37687765,32.6317736 L9.57231691,32.3256704 C10.2501981,31.2576183 10.6383404,30.6364329 10.6329511,30.631005 Z M7.23219336,27.492184 L6.26452277,28.6528861 C4.85941998,30.3421739 4.21416338,31.1540874 3.7002625,31.8952129 L3.541728,32.1240364 L3.6400809,32.1948998 C3.69484187,32.2330705 3.74408135,32.2657129 3.74952719,32.2657129 C3.75492261,32.2657129 4.47120206,32.0205055 5.34046933,31.7153657 C6.88771867,31.181302 10.2283896,29.9989136 10.2665609,29.9716991 C10.2775534,29.9661456 10.1463742,29.8790238 9.97137609,29.7808705 C8.99818401,29.2142649 8.19449376,28.565689 7.4070906,27.6883399 L7.23219336,27.492184 Z M6.53240271,27.2251647 C6.52695687,27.2251647 6.26991818,27.2850216 5.95277354,27.3614385 C5.63565412,27.4377297 4.75546996,27.6447916 3.99549771,27.8191105 C2.62856624,28.1352316 1.16875291,28.4785672 1.08676274,28.5003539 C1.03215305,28.5166123 1.03215305,28.6474583 1.09230943,28.9090749 C1.21806804,29.4703029 1.53511183,30.0860856 2.00534513,30.6691004 C2.22950706,30.9524786 2.73244063,31.4646801 3.02223,31.70451 L3.26827615,31.9115718 L3.49800999,31.5573554 C3.62376859,31.3611744 3.84790532,31.0341976 3.99554813,30.8271107 C4.14314053,30.6200488 4.53677907,30.0642487 4.87573229,29.5901424 C5.84897479,28.2332844 6.54334482,27.2360204 6.53240271,27.2251647 Z M19.0035314,26.8000849 L18.9861465,26.8040056 C18.9534044,26.8144616 18.8842826,26.8458345 18.8012033,26.8981628 C17.9863773,27.3843922 15.7369732,28.4656876 13.4451682,29.4800008 L12.8472595,29.7426495 C12.431762,29.9224968 12.1037004,30.0749787 12.1145921,30.0859851 C12.1473932,30.1131997 12.6940952,30.3584323 13.0768673,30.511065 C14.4437231,31.0559592 15.8980654,31.4646299 17.5218591,31.7589894 C17.5546602,31.7698199 17.5874613,31.7752478 17.5929071,31.7752478 C17.5984538,31.7752478 17.7131947,31.4320378 17.8443991,31.0177885 C18.1450298,30.0751295 18.3091362,29.5410406 18.5004718,28.8598726 C18.73013,28.0480093 19.0089772,26.9254276 19.0035314,26.8000849 Z M13.6017355,24.9200691 C13.5962897,24.9200691 13.4212916,24.9909576 13.2080213,25.0781799 C11.7044143,25.7211772 10.1900165,26.2443098 8.40761274,26.7292466 L7.91012502,26.8654953 L8.00857877,26.9853851 C8.68101416,27.8300415 9.70884114,28.7019125 10.8679986,29.4103454 C11.0648053,29.5302101 11.2288865,29.6283634 11.2342567,29.6283634 C11.2398034,29.6283634 11.4093304,29.3395323 11.6115829,28.9798378 C12.4097769,27.5739533 13.0331493,26.3205257 13.508778,25.1707295 C13.5634885,25.0399589 13.6072822,24.9256225 13.6017355,24.9200691 Z M14.4710532,24.6366657 C14.4655065,24.642169 14.4382521,24.7347688 14.394408,24.8382997 C14.0445127,25.9172828 13.3555633,27.4703219 12.6721354,28.7454609 C12.5935993,28.8918836 12.5256799,29.0212855 12.4857845,29.0990958 L12.4479986,29.1759685 C12.4479986,29.1813964 12.508155,29.1650123 12.5737572,29.1377978 C12.6394603,29.1105832 12.9893304,28.9797372 13.3447725,28.8490169 C15.7886443,27.9389249 18.1779065,26.9471892 18.9050272,26.5438961 L19.0800253,26.4459187 L18.9541911,26.4186287 C17.5655519,26.0971552 15.9362871,25.4704665 14.766238,24.7947263 C14.6077035,24.7021264 14.476499,24.6312379 14.4710532,24.6366657 Z M5.94188186,23.1162942 L5.67400054,23.2563015 L5.35908438,23.4259432 C5.06965559,23.5850964 4.72320201,23.7784287 4.44929264,23.9336356 C3.67293244,24.3750994 3.2191123,24.7183848 2.65047567,25.3068776 C1.79759635,26.1897048 1.1852165,27.2359952 1.05948311,28.0369777 C1.04309516,28.1297032 1.04859143,28.1351311 1.08678795,28.1241749 C1.10877302,28.1187973 1.40395781,28.037028 1.74291103,27.9444281 C2.88020951,27.6338605 6.49955117,26.576639 6.53784855,26.5438961 C6.54339524,26.5384934 6.45585838,26.3532183 6.34651294,26.1297725 C5.95287439,25.3233119 5.8215691,24.7347437 5.86541317,23.9391137 C5.87627964,23.7593669 5.90358448,23.4978006 5.9254687,23.3560738 C5.95826981,23.1598928 5.96374086,23.1162942 5.94188186,23.1162942 Z M19.5010695,21.5033982 L19.4135831,21.5687835 C19.3041116,21.6669117 18.8012033,22.0265057 18.4676707,22.2499516 C17.5764688,22.8439225 16.5486922,23.4433463 15.4769455,23.9991465 C15.2090908,24.1408482 14.9794074,24.260738 14.9740372,24.2661407 C14.9521277,24.2879525 15.7229665,24.762109 16.2533814,25.0509402 C17.057122,25.4922532 17.9483239,25.8682564 18.7684021,26.1243949 C18.9542919,26.1789748 19.1128264,26.2225231 19.1128264,26.2225231 C19.1181966,26.2169948 19.1456275,26.0426758 19.1784286,25.8301862 C19.3698651,24.6149293 19.5010695,22.9474534 19.5010695,21.7322467 L19.5010695,21.5033982 Z M10.059472,21.1603183 L9.6006489,21.3609814 C8.67185086,21.7699798 7.79057731,22.1821218 6.94707095,22.6018753 C6.91148686,22.6500941 6.89595337,22.7307382 6.85499319,22.9256415 C6.76201049,23.3833637 6.74557211,24.1244139 6.82761271,24.5494937 C6.90960288,24.9800014 7.06274197,25.4486798 7.24863174,25.8138022 C7.33609296,25.9826932 7.3470855,25.9936494 7.37439034,25.9554787 C7.39082872,25.933692 7.51653689,25.7374607 7.64774134,25.524971 C8.42410153,24.2934557 9.00362985,23.2798077 9.53399432,22.2499013 C9.76802606,21.7927219 10.0060674,21.2996492 10.059472,21.1603183 Z M11.1849738,20.6853263 L10.9749676,20.7712347 C10.9651467,20.7879204 10.9573099,20.8078106 10.9500644,20.8330858 C10.9336261,20.8875903 10.8406938,21.1273196 10.7477363,21.3670992 C10.2009587,22.7512472 9.22779179,24.7075291 8.5881323,25.7047932 C8.44598575,25.9281636 8.42954738,25.9554536 8.47883729,25.9390695 C8.78650427,25.8382909 9.09445608,25.7383782 9.40268903,25.6393325 C10.6930257,25.2252088 11.8193821,24.8328719 12.8526045,24.440535 C13.7438316,24.1026272 13.7329147,24.1081304 13.700038,24.0754126 C13.6836752,24.0590286 13.5634633,23.9555228 13.4321833,23.8465389 C13.0277034,23.5032284 12.541057,22.980146 12.1692774,22.4896809 C11.8301982,22.0428143 11.43661,21.3453125 11.2617128,20.8712063 C11.2289117,20.7731535 11.1905639,20.6859312 11.1796722,20.6750253 L11.1849738,20.6853263 Z M15.5766035,19.0052456 L15.4562326,19.0472181 C15.4484624,19.1141241 15.4471043,19.2500259 15.4442453,19.536135 C15.4332527,20.6369048 15.2254535,22.0100966 14.8591198,23.3670802 C14.815427,23.5305938 14.7827268,23.6667419 14.7936185,23.6667419 C14.7990643,23.6667419 15.023201,23.5741421 15.2910558,23.4542523 C16.8110002,22.783965 18.0521731,22.119181 19.0472494,21.443491 C19.5118856,21.1273699 19.490077,21.1601128 19.2878245,21.0729408 C18.6317519,20.7895375 17.1008148,19.9394029 15.9745593,19.2364482 C15.7734451,19.1125118 15.6506286,19.0398109 15.5766035,19.0052456 Z M14.7458982,19.299566 L14.7037329,19.3160776 L14.1812638,19.5089204 C13.3360947,19.8251283 12.5280329,20.1391788 11.7525933,20.4531255 C11.785263,20.5641134 11.9461859,20.9488982 12.0544609,21.1600374 C12.3005071,21.6395464 12.6339388,22.1299864 13.0604289,22.6204515 C13.3064499,22.9038045 14.05548,23.633999 14.0774651,23.6067845 C14.0882811,23.5959288 14.1430421,23.4268869 14.2031985,23.2254037 C14.4546148,22.3915778 14.6077035,21.6505025 14.7061068,20.8548725 C14.7463154,20.5495266 14.767991,19.4944756 14.7458982,19.299566 Z M12.726972,16.9803789 L12.7159794,16.980404 C12.7051382,16.9858319 12.6012134,17.1111746 12.4863717,17.2474485 C11.4257184,18.544349 10.0097239,19.8413501 8.37486205,21.0237887 C8.16711328,21.1764214 7.99766188,21.3017642 7.99766188,21.307192 C7.99766188,21.3126199 8.21635276,21.2090638 8.48428313,21.0729157 C8.75213786,20.9420445 9.16221478,20.7459138 9.39724319,20.6368796 C10.2338606,20.2554989 11.4694112,19.7432219 12.8090126,19.2255925 L13.5579419,18.9367613 L13.5471258,18.8277272 C13.4868938,18.3264064 13.2463187,17.7050953 12.9346703,17.2419955 C12.7871283,17.0239775 12.7542264,16.9750013 12.726972,16.9803789 Z M11.8795385,17.187491 C11.8576543,17.165654 10.0042528,18.4190063 9.20053737,18.9966434 C8.89978068,19.2092587 8.8614833,19.2474295 8.65373453,19.5143985 C8.34208615,19.9175911 8.06876037,20.2445427 7.70787251,20.6314518 C7.13923587,21.2472346 7.09004681,21.3017642 7.12834419,21.2799775 C7.14478256,21.2690213 7.29237496,21.1764214 7.45638051,21.0729157 C8.75218828,20.2554989 9.79647885,19.4162703 10.8516863,18.3426899 C11.2781512,17.9122074 11.9014227,17.2092777 11.8795385,17.187491 Z M19.2090048,17.8272187 L18.847257,17.9395311 C17.914531,18.2261482 17.0127864,18.5162719 16.1636164,18.8041562 L16.2046096,18.8338372 C16.4608714,19.0213354 17.3997764,19.6408436 17.9101022,19.9612902 C18.5387439,20.3536271 19.4190542,20.8712565 19.462747,20.8712565 C19.4736386,20.8712565 19.4791853,20.724127 19.4681928,20.5007315 C19.4292389,19.5586976 19.2861384,18.1278772 19.2090048,17.8272187 Z M17.7952353,13.8525141 C17.7786961,13.8416081 16.7181184,14.3756216 16.0401615,14.7352659 C15.0341936,15.2747071 13.443201,16.1792959 13.3393518,16.2719712 C13.3119209,16.2991857 13.3338051,16.3591432 13.4595637,16.6098036 C13.7548494,17.2091772 13.9243008,17.912132 13.9243008,18.5715636 C13.9243008,18.6969064 13.9297466,18.7786254 13.946185,18.7731976 C13.9571775,18.7677195 14.1922311,18.5007253 14.4655317,18.1791513 C15.1216044,17.4054085 16.0729626,16.2174918 16.6087477,15.5090589 C17.057122,14.9150629 17.806127,13.8633697 17.7952353,13.8525141 Z M18.9379544,13.569161 L18.7465431,13.8633446 C17.7951849,15.2856131 16.5158911,16.7461277 15.0724657,18.0701925 C14.5843452,18.51887 14.5398661,18.5582526 14.5579694,18.5607781 L14.5693809,18.5606828 C14.5858193,18.5606828 14.7990643,18.4843916 15.0505563,18.3917917 C17.308614,17.5634439 19.2440561,16.9476611 21.74816,16.2556625 L22.1909119,16.13037 L22.1254106,16.0594564 C22.0050222,15.9286858 21.4036348,15.3891189 21.0920873,15.1330558 C20.539763,14.6698806 19.8180881,14.1413452 19.2058848,13.7434799 L18.9379544,13.569161 Z M10.8843866,15.5418018 C10.8734949,15.5418018 10.8187843,15.6616916 10.7750663,15.819727 C10.6547788,16.1848494 10.4853274,16.6044763 10.315876,16.9586425 C10.1244395,17.3564072 9.94409645,17.6670251 9.58320859,18.2174225 C9.5285989,18.2991416 9.544886,18.2882608 10.026137,17.9068047 C10.4853274,17.5416823 11.2726045,16.9476611 11.7920268,16.5771109 C11.9779166,16.4409628 12.1200127,16.3264757 12.1091211,16.31562 C11.830299,16.0866961 11.5186506,15.8741813 11.1687553,15.6834783 C11.0265835,15.6071369 10.9008249,15.5418018 10.8843866,15.5418018 Z M27.0569984,10.3050475 C27.0475762,10.2956565 26.5280417,10.4424542 25.9631807,10.6149668 L25.6791248,10.702762 C24.4160425,11.0896962 22.7322689,11.6890949 21.4966175,12.190466 C20.7912046,12.4737688 19.8618313,12.8716592 19.8618313,12.8879678 C19.8618313,12.8933957 19.9110708,12.9369942 19.9712272,12.9805677 C20.0113315,13.0096334 20.104852,13.0847129 20.2113373,13.1719137 L20.3757322,13.3075696 C21.2450499,14.0268581 21.9777173,14.827916 22.5900972,15.7434358 C22.6666919,15.8633005 22.7376644,15.9613282 22.7431102,15.9613282 C22.7486569,15.9613282 22.929,15.7325048 23.1477917,15.4600576 C23.3609359,15.1876105 24.0061925,14.3755965 24.5801489,13.6563582 C25.6681575,12.2940472 26.1494337,11.6727109 26.4774196,11.2040828 C26.7070274,10.8826092 27.0678144,10.315878 27.0569984,10.3050475 Z M27.4779418,10.413956 L27.4525877,10.4633605 C27.4113326,10.5471562 27.3262272,10.7259496 27.231946,10.9261576 C26.3353739,12.7244795 25.5753513,13.7325991 23.9133106,15.3292368 C23.6453551,15.585325 23.4322109,15.7978147 23.4430269,15.7978147 C23.4540194,15.7978147 23.6234708,15.7596439 23.8148065,15.7160956 C26.6469719,15.0349527 29.5938277,14.550041 31.8956035,14.3755965 C32.1907883,14.3538349 32.4422803,14.3320481 32.4422803,14.3320481 C32.4532728,14.3266203 31.7370438,13.5855199 31.4473048,13.3021166 C30.4193518,12.2994247 29.118199,11.3239475 27.7895901,10.5664882 C27.6310304,10.4739386 27.4997503,10.4085533 27.4779418,10.413956 Z M14.5912651,11.787198 C14.5749024,11.7708643 13.4923396,12.6372823 12.9784388,13.0786959 C12.2622097,13.6890257 11.3272898,14.533657 11.3272898,14.5772556 C11.3272898,14.5880861 11.4420559,14.6535468 11.5897743,14.7297626 C11.9614782,14.920541 12.251318,15.1330558 12.6066592,15.4763914 L12.9128365,15.770575 L13.0494868,15.5526072 C13.1205601,15.4272896 13.2517393,15.2038438 13.3393266,15.0513367 C13.7055847,14.3974083 14.0828101,13.5309903 14.3070476,12.8389163 C14.4218137,12.4737939 14.6077035,11.803582 14.5912651,11.787198 Z M15.3020483,11.6564777 C15.2856855,11.6564777 15.2637761,11.7109068 15.2419928,11.7926259 C15.0177552,12.8334885 14.6241671,13.9015656 14.1320748,14.7951731 C13.9844319,15.0621672 13.9789861,15.0840796 14.0008703,15.0840796 C14.0063162,15.0840796 14.225007,14.9532336 14.4874159,14.7951731 C15.4059983,14.2393226 16.2862077,13.7543859 17.3141607,13.2421591 C17.6365999,13.0840986 17.8990845,12.9478499 17.8936386,12.9424221 C17.8553917,12.9097797 17.1172532,12.5173422 16.6251861,12.2722102 C16.089401,12.0052663 15.378643,11.6727361 15.3020483,11.6564777 Z M11.1032188,10.2882472 L11.0867399,10.2886635 C11.0812689,10.2940913 11.0976316,10.4248116 11.1140952,10.5774443 C11.2890681,11.7708391 11.3163225,12.9478499 11.1905891,13.8633697 C11.1852189,13.9069432 11.1905891,13.9397112 11.2015816,13.9397112 C11.2124733,13.9397112 11.4201717,13.7490083 11.6662178,13.5146063 C12.4918427,12.7189762 13.1807921,12.0923881 13.8970211,11.4984171 C14.0719184,11.3457844 14.2194856,11.2204417 14.2194856,11.2150138 C14.2194856,11.1822709 12.8964234,10.7409327 12.2731518,10.5664882 C11.8631001,10.4521518 11.1031027,10.2722794 11.0867399,10.2886635 L11.1032188,10.2882472 Z M20.5780856,7.95635326 C20.5562014,7.93451628 19.3534267,8.59937571 18.6153135,9.04619201 C17.6858394,9.60201731 15.9252946,10.7627194 15.9636424,10.7954624 C15.9691135,10.8062678 16.1605247,10.8826092 16.37914,10.9752091 C17.1664927,11.302211 17.8881676,11.6509493 18.522356,12.0214995 C18.691883,12.1195775 18.8395258,12.2013468 18.8503419,12.195919 C18.8613596,12.1904911 18.9652088,12.0270028 19.0801262,11.8253688 C19.7306773,10.6919817 20.2609914,9.4876056 20.457798,8.67564181 C20.5234003,8.41412574 20.594524,7.97268702 20.5780856,7.95635326 Z M20.9935831,8.02171343 C20.9771448,8.02171343 20.9608577,8.10340736 20.9552858,8.2069634 C20.8624291,9.30778346 20.4851785,10.5992813 19.9001539,11.8362496 C19.8290807,11.9888823 19.7743953,12.1141999 19.7853879,12.1141999 C19.7962039,12.1141999 19.9383757,12.0596954 20.0969354,11.9943101 C22.0378989,11.2096363 24.0499357,10.5883251 26.4008501,10.0488839 L26.6795965,9.98354882 L26.2805373,9.8036513 C25.3182621,9.3677158 23.8421113,8.82827451 22.5572204,8.44679326 C22.0378989,8.29421081 21.0428226,8.02171343 20.9935831,8.02171343 Z M14.3890126,6.75750551 C14.3397731,6.74112149 12.8417128,7.89634554 12.2896154,8.38140796 C11.9998765,8.63749619 11.3218944,9.31318617 11.3218944,9.34592907 C11.3218944,9.35680987 11.6990441,9.47124671 12.1638568,9.59658947 C12.978464,9.82541289 13.9297466,10.1033884 14.5147712,10.2886635 L14.7990643,10.3812633 L14.815427,10.3268342 C14.8264196,10.2995191 14.8373113,10.0870295 14.8483038,9.8581558 C14.8811049,9.03531121 14.7881474,8.15253428 14.5858193,7.36233209 C14.476499,6.9536614 14.4218137,6.76836117 14.3890126,6.75750551 Z M14.779686,6.81195869 L14.7662632,6.81193462 C14.7607921,6.81746297 14.7935932,6.89918203 14.8318402,6.98637918 C15.2146375,7.86915611 15.4224115,8.91544654 15.4224115,9.95078078 C15.4224115,10.141534 15.4278825,10.2995191 15.4333284,10.2995191 C15.4387742,10.2995191 15.6739035,10.1469618 15.9527507,9.96168671 C17.0187742,9.25320357 18.0904453,8.67021397 19.533795,8.0216883 C19.9001287,7.85822505 20.0149704,7.79283975 19.9821693,7.78198408 C19.9165923,7.75469414 18.812221,7.52579534 18.0521983,7.37869098 C17.029792,7.18248482 14.7827016,6.79567625 14.7662632,6.81193462 L14.779686,6.81195869 Z M9.65428187,5.85836969 L9.65,5.859 L9.65433734,5.87112068 C9.66523507,5.90027297 9.69109979,5.96004368 9.72365382,6.03039324 L9.75813105,6.10352687 C10.1299106,6.89362855 10.5400379,8.01621021 10.7367438,8.7736695 C10.7641999,8.88818172 10.7969001,8.98078158 10.7969001,8.98078158 C10.7969001,8.98078158 10.9336513,8.85001098 11.0921858,8.69195044 C11.4858747,8.29961351 12.0325515,7.86367801 12.6394855,7.46043517 C12.879985,7.29692166 13.6072066,6.86646425 13.7875496,6.7738644 C13.8695902,6.73021556 13.9352681,6.69214534 13.9352681,6.68118915 C13.9352681,6.67035861 13.7930711,6.63759058 13.6126272,6.61037602 C12.546528,6.43052875 10.8789407,6.11445793 9.94946666,5.9073961 C9.80192469,5.87472858 9.68163714,5.85836969 9.65428187,5.85836969 Z M6.96433863,5.11726929 C6.96433863,5.12269713 7.07918034,5.2208002 7.23219336,5.32968356 C8.40224253,6.2452034 9.41370677,7.38409368 10.0534167,8.50667534 C10.1244647,8.63199297 10.1845203,8.72469335 10.1901426,8.719165 C10.1956137,8.719165 10.1408275,8.5012475 10.0698551,8.24505875 C9.88396528,7.56931852 9.33174181,5.80931815 9.29339401,5.77114741 C9.28794817,5.77114741 9.01462238,5.69483106 8.68658606,5.61313713 C8.44544251,5.5517904 8.20487391,5.48822003 7.96491119,5.42243419 C7.64771613,5.33518678 7.37983618,5.25341747 7.17208741,5.18265459 C7.05719528,5.14448385 6.96973405,5.11189172 6.96433863,5.11726929 Z M14.3398235,4.19562116 L14.3288814,4.20717729 C14.3070728,4.22356131 14.1922563,4.32163926 14.0664977,4.4251953 C13.5525212,4.85570297 12.9730181,5.25899607 12.3989104,5.57499151 C12.3278372,5.61316226 12.2731518,5.651333 12.2731518,5.65676083 C13.2101165,5.80390025 14.2004571,5.96327664 15.3944386,6.14969722 C15.3938467,6.14232392 15.3826928,6.12994516 15.3730963,6.1144328 C15.2310759,5.90194314 14.6514215,4.80112308 14.4655317,4.39245239 C14.3999295,4.24532291 14.3726751,4.1962965 14.3507656,4.1962965 C14.3453198,4.19086866 14.3343273,4.1962965 14.3288814,4.20717729 L14.3398235,4.19562116 Z M8.01947046,2.71954866 L8.30386441,2.97561176 C8.59365378,3.24813427 9.34818019,3.96742282 10.3104554,4.89920103 L10.830602,5.40677292 C11.0069608,5.43675327 11.1826955,5.46650488 11.3588616,5.49618645 C11.4117435,5.47232707 11.5444364,5.39747854 11.688102,5.30799735 C12.2785977,4.94287499 13.1315526,4.46876875 13.9078372,4.08185966 C14.1047195,3.9892598 14.2577073,3.90751561 14.2522615,3.90208778 C14.2468913,3.90208778 14.093727,3.88570376 13.9133587,3.86934487 C12.3058521,3.73857427 9.39179734,3.18272384 8.23279113,2.79031153 L8.01947046,2.71954866 Z M7.80085521,2.88843974 L7.72978193,2.93754154 C6.94250484,3.49331658 6.47771738,4.03821083 6.47227154,4.40333319 L6.47298912,4.46228309 C6.52949745,4.48310218 6.58439349,4.50321219 6.63625189,4.52332351 C7.12831898,4.69223972 7.75701114,4.83934408 8.08504747,4.91025773 C8.52882924,5.0055606 9.13059792,5.11420083 9.6711126,5.20820638 C9.65104278,5.17827223 9.58687478,5.10029256 9.51218574,5.0081849 C9.41915261,4.89379832 8.99268774,4.37614376 8.57174435,3.84755815 L7.80085521,2.88843974 Z M13.2956338,0.278279708 C13.1369985,0.305494266 11.0812689,1.1610315 10.3322387,1.5044174 C9.74721415,1.77681427 8.41868091,2.46893852 8.44053991,2.49072524 C8.44053991,2.49615308 8.68658606,2.53427356 8.97637543,2.5724443 C10.7860841,2.8231047 13.2846665,3.25361236 13.8423358,3.40614456 C14.0773894,3.47703308 14.0773894,3.5097006 13.8751369,2.91025159 C13.6072822,2.11462156 13.4376543,1.37907464 13.3447977,0.616061872 C13.3228882,0.43634025 13.301004,0.283657284 13.2956338,0.278279708 Z" id="Combined-Shape-Copy-9"></path>
        </g>
    </g>
</svg>