<?xml version="1.0" encoding="UTF-8"?>
<svg width="65px" height="34px" viewBox="0 0 65 34" version="1.1" xmlns="http://www.w3.org/2000/svg" xmlns:xlink="http://www.w3.org/1999/xlink">
    <!-- Generator: Sketch 51.3 (57544) - http://www.bohemiancoding.com/sketch -->
    <title>ic-technology-my-sql</title>
    <desc>Created with Sketch.</desc>
    <defs></defs>
    <g id="Page-1" stroke="none" stroke-width="1" fill="none" fill-rule="evenodd">
        <g id="ic-technology-my-sql" fill="#252B33" fill-rule="nonzero">
            <path d="M26.959413,23.7893397 C26.9760435,23.7893397 26.959413,31.3905571 26.959413,31.423818 C26.9760435,33.3034267 24.6344783,33.699231 23.5627391,33.7321223 L16.7693913,33.7321223 L16.7693913,32.2812093 L16.989905,32.2817178 C18.1556912,32.284345 23.5482362,32.2957122 23.5627391,32.2812093 C24.8876465,32.1550108 24.7944462,31.5158725 24.7838373,31.2583923 L24.7830435,30.6651006 L20.215587,30.6651006 C18.0883696,30.6322093 16.7361304,29.7086658 16.7198696,28.6369267 C16.7198696,28.5382527 16.7693913,23.8551223 16.7198696,23.8056006 L18.8633478,23.8056006 L18.8633478,28.488731 C18.847087,28.7526006 18.9457609,29.3461223 20.1331739,29.3623832 C20.7266957,29.3790136 24.766413,29.3623832 24.7993043,29.3623832 L24.7993043,23.7893397 L26.959413,23.7893397 Z M46.9443913,20.8209919 C47.1421087,20.8209919 47.3235652,20.8209919 47.537913,20.8542527 C49.3351087,21.1014919 50.2586522,21.8931006 50.2586522,23.195818 L50.2586522,28.3072745 C50.2586522,29.3623832 49.8628478,29.9230136 48.9721957,30.2859267 L51.099413,32.1987962 L48.5930217,32.1987962 L46.8782391,30.6651006 L45.1468261,30.764144 L42.8551522,30.764144 C42.4593478,30.764144 42.046913,30.7146223 41.5853261,30.5826875 C40.2168261,30.220144 39.5571522,29.494318 39.5571522,28.3072745 L39.5571522,23.195818 C39.5571522,21.8931006 40.4640652,21.1014919 42.2778913,20.8542527 C42.4593478,20.8209919 42.6736957,20.8209919 42.8551522,20.8209919 L46.9443913,20.8209919 Z M13.9167174,20.804731 C14.5475899,21.004789 14.8768117,21.3629157 14.9179041,22.0801259 L14.9223043,22.2393832 L14.9223043,30.7312527 L12.7788261,30.7312527 L12.7788261,22.2227527 L9.44793478,29.6428832 C9.0525,30.5331658 8.52476087,30.8465571 7.46928261,30.8465571 C6.47623913,30.8465571 5.95034655,30.568951 5.56192831,29.794057 L5.49063043,29.6428832 L2.1601087,22.2227527 L2.1601087,30.7312527 L-7.31859018e-13,30.7312527 L-7.31859018e-13,22.2393832 C-7.31859018e-13,21.4148832 0.329652174,21.0190788 1.02221739,20.804731 C2.58361437,20.3158444 3.6773807,20.7016943 4.18805313,21.7032159 L4.25406522,21.8435788 L7.42013043,29.1484049 L10.6848696,21.8435788 C11.1793478,20.7385788 12.2843478,20.2936223 13.9167174,20.804731 Z M38.2710652,20.7881006 L38.2710652,22.2227527 L32.1207609,22.2227527 C32.0546087,22.2227527 31.9721957,22.2393832 31.906413,22.2393832 C31.1476957,22.3051658 30.917087,22.4371006 30.8180435,22.8824267 C30.801413,22.9482093 30.801413,22.997731 30.801413,23.0638832 L30.802029,24.1024573 C30.8032609,24.1464218 30.8069565,24.1904412 30.8180435,24.2342962 C30.9104841,24.773073 31.2756014,25.0388512 32.0344849,25.0718937 L32.2031739,25.0754267 L34.8082391,25.0754267 C35.4512826,25.0754267 36.1109565,25.1744701 36.6549565,25.388818 C37.5938493,25.7427136 38.1161615,26.28333 38.1816303,26.8499157 L38.1886522,26.9716658 L38.1886522,28.5545136 C38.1886522,29.313231 37.7266957,29.8901223 36.8035217,30.318818 C36.3129701,30.5497038 35.7086732,30.6923098 35.0792647,30.7243537 L34.8082391,30.7312527 L28.6250435,30.7312527 L28.6250435,29.2966006 L34.561,29.2966006 C34.643413,29.2966006 34.7095652,29.2799701 34.7919783,29.2799701 C35.2040435,29.2470788 35.5174348,29.1484049 35.6988913,28.9832093 C35.8775145,28.8458542 35.9758086,28.6856579 36.0036115,28.5500994 L36.011913,28.4721006 L36.011913,27.2189049 C36.011913,27.0707093 35.9623913,26.9550354 35.847087,26.8231006 C35.6327391,26.5758614 35.3522391,26.4605571 34.6600435,26.3944049 C34.615942,26.3835643 34.5646135,26.3799508 34.510876,26.3787463 L32.2031739,26.378144 C31.9888261,26.378144 31.7907391,26.3615136 31.5763913,26.3615136 C29.822558,26.1720344 28.7346465,25.4069164 28.6470321,24.4870558 L28.6413043,24.366231 L28.6413043,23.1130354 C28.6413043,22.0084049 29.2019348,21.3819919 30.4880217,20.9695571 C30.8629625,20.864735 31.2647806,20.8005345 31.9914053,20.7897279 L32.2194348,20.7881006 L38.2710652,20.7881006 Z M53.7543696,20.7881006 L53.7543696,28.2248614 C53.7543696,28.9432962 54.183573,29.2623794 55.3081327,29.293977 L55.5020435,29.2966006 L61.1412391,29.2966006 L61.1412391,30.7312527 L55.5349348,30.7312527 C55.3372174,30.7312527 55.1228696,30.7146223 54.9251522,30.6979919 C52.7813454,30.5392705 51.6927026,29.768835 51.6150031,28.3870154 L51.6105217,28.2248614 L51.6105217,20.7881006 L53.7543696,20.7881006 Z M62.8726522,29.2966006 L62.8726522,29.5438397 L62.4439565,29.5438397 L62.4439565,30.7312527 L62.1305652,30.7312527 L62.1305652,29.5438397 L61.7018696,29.5438397 L61.7018696,29.2966006 L62.8726522,29.2966006 Z M63.631,29.2966006 L64.0105435,30.2859267 L64.3897174,29.2966006 L64.818413,29.2966006 L64.818413,30.7312527 L64.537913,30.7312527 L64.537913,29.6428832 L64.5216522,29.6428832 L64.1092174,30.7312527 L63.8948696,30.7312527 L63.4828043,29.6428832 L63.4828043,30.7312527 L63.1860435,30.7312527 L63.1860435,29.2966006 L63.631,29.2966006 Z M46.713413,22.255644 L43.4486739,22.255644 C42.4922391,22.255644 41.882087,22.6680788 41.882087,23.3111223 L41.882087,28.1753397 C41.882087,28.2577527 41.8987174,28.3239049 41.9149783,28.406318 C42.046913,28.9998397 42.6075435,29.3294919 43.4486739,29.3294919 L45.4106957,29.3294919 L43.6135,27.7137527 L46.1198913,27.7137527 L47.6861087,29.115144 C47.9666087,28.9669484 48.1643261,28.7359701 48.2304783,28.4392093 C48.2413188,28.3842672 48.2449324,28.3365523 48.2461369,28.2913558 L48.2467391,23.3111223 C48.2467391,23.2616006 48.2467391,23.195818 48.2304783,23.1296658 C48.0985435,22.5690354 47.537913,22.255644 46.713413,22.255644 Z M44.8666957,1.03447014 C45.1139348,1.18266579 45.3778043,1.49605709 45.6250435,1.59510057 L46.8619783,1.67751361 C47.6369565,1.85897014 48.362413,2.00716579 48.9721957,2.3534484 C51.8248696,4.01870927 53.6553261,5.71723101 55.3701087,8.52038318 C55.7163913,9.11390492 55.9144783,9.7569484 56.1946087,10.3999919 C56.6066739,11.3564267 57.0686304,12.3457527 57.5468478,13.2692962 C57.7774565,13.6979919 57.9260217,14.1762093 58.2227826,14.5387527 C58.3547174,14.7039484 58.6843696,14.7531006 58.8658261,14.8355136 C59.4264565,15.1160136 60.0695,15.3303614 60.5972391,15.676644 C61.5370435,16.2701658 62.460587,16.9793614 63.3013478,17.704818 C63.5650696,17.9159136 63.7445896,18.2218545 63.9577903,18.4877286 L64.1258478,18.6775136 L64.1258478,18.8260788 L63.3342391,19.0566875 C62.7573478,19.2052527 62.2458696,19.1723614 61.6856087,19.3205571 C61.355587,19.4033397 60.9268913,19.5349049 60.5639783,19.5844267 C60.5639783,19.5899701 60.5658261,19.5936658 60.5689058,19.5967318 L60.5972391,19.617318 C60.811587,20.2112093 61.9657391,20.722318 62.4768478,21.085231 C63.028028,21.480877 63.555043,21.9492896 63.9955217,22.4695232 L64.2082609,22.7338614 L64.7031087,23.2287093 C64.7771141,23.3523288 64.8141168,23.5038044 64.8767928,23.6344919 L64.9503478,23.7564484 L64.9503478,23.7893397 C64.736,23.7069267 64.6040652,23.5088397 64.4392391,23.3769049 C64.0763261,23.1130354 63.713413,22.8162745 63.3342391,22.5856658 C62.724087,22.1898614 61.9986304,21.9755136 61.3393261,21.5797093 C60.976413,21.348731 60.6301304,21.085231 60.3004783,20.8209919 C59.987087,20.5903832 59.6408043,20.1450571 59.4264565,19.8154049 C59.327413,19.6339484 59.2945217,19.4196006 59.162587,19.2876658 C59.2121087,18.9742745 59.5912826,18.9742745 59.8385217,18.8756006 C60.7125435,18.4964267 61.7185,18.3807527 63.0374783,18.413644 C63.004587,18.0673614 62.180087,17.6552962 61.9162174,17.4738397 C61.3722174,17.0946658 60.8278478,16.6826006 60.2509565,16.3525788 C59.9541957,16.1711223 59.4427174,16.0229267 59.1296957,15.8909919 C58.6843696,15.7095354 57.6950435,15.5280788 57.4311739,15.1817962 C56.9529565,14.5387527 56.6066739,13.7475136 56.2770217,12.9559049 C55.9307391,12.1809267 55.485413,11.3564267 55.1395,10.5485571 C54.9743043,10.1527527 54.8918913,9.80647014 54.6941739,9.42729622 C53.4738696,7.10236144 51.7095652,5.15660057 49.5331957,3.78810057 C48.824,3.32614405 48.0323913,2.91407883 47.1587391,2.65020927 C46.7463659,2.52640492 46.2654692,2.56325878 45.8112205,2.51204149 L45.5426304,2.46875274 L45.2129783,2.46875274 C44.9162174,2.3863397 44.6686087,2.07331796 44.4213696,1.90812231 C43.9102609,1.5618397 43.3991522,1.33123101 42.8052609,1.06736144 C42.5746522,0.984948397 41.9645,0.753970136 41.7501522,0.918796223 C41.6182174,0.968317962 41.5686957,1.0178397 41.5191739,1.14977448 C41.4038696,1.34749188 41.5191739,1.64425274 41.601587,1.82570927 C41.8491957,2.3534484 42.1954783,2.6668397 42.5085,3.11179622 C42.789,3.4913397 43.1186522,3.93629622 43.333,4.38162231 C43.7620652,5.30479622 43.9431522,6.32738318 44.3389565,7.25055709 C44.5037826,7.5968397 44.7181304,7.99264405 44.9491087,8.28940492 C45.1305652,8.53701361 45.443587,8.73473101 45.5426304,9.04812231 C45.7569783,9.37777448 45.2458696,10.466144 45.1305652,10.8124267 C44.7015,12.1642962 44.8005435,14.0442745 45.2787609,15.2150571 C45.4768478,15.676644 45.6583043,16.220644 46.1856739,16.3525788 C46.2185652,16.3196875 46.2023043,16.336318 46.268087,16.3030571 C46.3671304,15.4127745 46.4166522,14.5387527 46.713413,13.8299267 C46.9111304,13.3846006 47.257413,13.0712093 47.5046522,12.6920354 C47.6861087,12.8077093 47.6861087,13.1044701 47.7688913,13.3021875 C47.9828696,13.8132962 48.2138478,14.3739267 48.4777174,14.8850354 C49.0383478,15.9405136 49.6485,16.962731 50.3244348,17.8862745 C50.5716739,18.2159267 50.9016957,18.5788397 51.1984565,18.8756006 C51.2849348,18.9620788 51.3901223,19.0207011 51.4790951,19.1072833 L51.5613696,19.2052527 L51.6105217,19.2052527 L51.6105217,19.238144 C51.099413,19.073318 50.7860217,18.5622093 50.4068478,18.2654484 C49.6485,17.704818 48.7582174,16.8474267 48.2633696,16.0391875 C48.1093841,15.7425498 47.9555628,15.4457479 47.8066143,15.1440732 L47.5874348,14.687318 L47.5874348,14.6544267 C47.4883913,14.7863614 47.5212826,14.9182962 47.4717609,15.0993832 C47.257413,15.9405136 47.4222391,16.8636875 46.6805217,17.1770788 C45.8231304,17.5233614 45.2129783,16.6164484 44.9491087,16.2043832 C44.0917174,14.8192527 43.8773696,12.5272093 44.4542609,10.6638614 C44.5861957,10.2517962 44.6028261,9.7569484 44.8338043,9.42729622 C44.8005435,9.13053535 44.5533043,9.04812231 44.4213696,8.86666579 C44.1903913,8.55327448 43.9926739,8.19036144 43.8112174,7.8444484 C43.4649348,7.16814405 43.2343261,6.36027448 42.9538261,5.61818753 C42.8385217,5.32142666 42.8218913,5.04129622 42.6899565,4.76079622 C42.4922391,4.33210057 42.1459565,3.90340492 41.8654565,3.52423101 C41.4700217,2.97986144 40.3650217,1.92475274 40.8103478,0.853013615 C41.502913,-0.861768994 43.9268913,0.440578832 44.8666957,1.03447014 Z M46.2185652,4.08486144 C46.3671304,4.21679622 46.5648478,4.29920927 46.6805217,4.46403535 C46.7629348,4.5793397 46.7791957,4.69501361 46.8619783,4.79368753 C46.8619783,5.15456796 46.7861481,5.40170315 46.6124532,5.5571277 L46.5319565,5.61818753 L46.4824348,5.66770927 C46.3671304,5.4038397 46.2351957,5.13997014 46.1198913,4.87610057 C45.9880304,4.69161361 45.8138322,4.53858405 45.6818767,4.34965048 L45.5921522,4.20016579 L45.5426304,4.20016579 L45.5426304,4.16727448 C45.7569783,4.11775274 45.9550652,4.08486144 46.2185652,4.08486144 Z" id="Combined-Shape"></path>
        </g>
    </g>
</svg>