<?xml version="1.0" encoding="UTF-8"?>
<svg width="40px" height="19px" viewBox="0 0 40 19" version="1.1" xmlns="http://www.w3.org/2000/svg" xmlns:xlink="http://www.w3.org/1999/xlink">
    <!-- Generator: Sketch 51.3 (57544) - http://www.bohemiancoding.com/sketch -->
    <title>ic-technology-php</title>
    <desc>Created with Sketch.</desc>
    <defs></defs>
    <g id="Page-1" stroke="none" stroke-width="1" fill="none" fill-rule="evenodd">
        <g id="ic-technology-php" fill="#252B33" fill-rule="nonzero">
            <path d="M10.0471925,3.91158973 C13.0802705,4.09792673 14.5969176,5.58798533 14.5969176,8.19606593 C14.5969176,12.6666667 10.995151,15.2745348 7.77222183,15.0881978 L4.3603064,15.0881978 L3.60198284,19 L0,19 L3.03329423,3.91158973 L10.0471925,3.91158973 Z M8.53076162,6.70579486 L6.06637223,6.70579486 L5.11862996,12.2942051 L7.3933844,12.2942051 C9.09945023,12.1078681 10.6160973,11.5490696 10.8055161,8.38219046 C10.8055161,7.2645934 9.85777379,6.70579486 8.53076162,6.70579486 Z M13.8922195,15.0881978 L16.9252975,0 L20.5272803,0 L19.7689567,3.91158973 L23.1810884,3.91158973 C26.2143826,4.09792673 27.3517599,5.58798533 26.9727062,7.4509304 L25.645694,15.0881978 L21.8542925,15.0881978 L23.1813046,8.19606593 C23.3707233,7.2645934 23.3707233,6.70579486 22.0439274,6.70579486 L19.2002681,6.70579486 L17.4942023,15.0881978 L13.8922195,15.0881978 Z M35.4500587,3.91158973 C38.4833529,4.09792673 40,5.58798533 40,8.19606593 C40,12.6666667 36.3980172,15.2745348 33.1753042,15.0881978 L29.7629563,15.0881978 L29.0046328,19 L25.4028661,19 L28.4359441,3.91158973 L35.4500587,3.91158973 Z M33.9336278,6.70579486 L31.4690221,6.70579486 L30.5212799,12.2942051 L32.7962505,12.2942051 C34.5023164,12.1078681 36.0189635,11.5490696 36.2083822,8.38219046 C36.2083822,7.2645934 35.2606399,6.70579486 33.9336278,6.70579486 Z" id="Shape-Copy"></path>
        </g>
    </g>
</svg>