<?xml version="1.0" encoding="iso-8859-1"?>
<!-- Generator: Adobe Illustrator 16.0.0, SVG Export Plug-In . SVG Version: 6.00 Build 0)  -->
<!DOCTYPE svg PUBLIC "-//W3C//DTD SVG 1.1//EN" "http://www.w3.org/Graphics/SVG/1.1/DTD/svg11.dtd">
<svg version="1.1" id="Capa_1" xmlns="http://www.w3.org/2000/svg" xmlns:xlink="http://www.w3.org/1999/xlink" x="0px" y="0px"
	 width="528.921px" height="528.921px" viewBox="0 0 528.921 528.921" style="enable-background:new 0 0 528.921 528.921;"
	 xml:space="preserve">
<g>
	<g>
		<path d="M175.041,493.746c19.538,5.321,39.792,8.118,60.203,8.317l0.447-45.896c-16.49-0.163-32.837-2.418-48.59-6.708
			L175.041,493.746z"/>
		<path d="M166.409,442.528c-15.199-6.087-29.596-14.131-42.797-23.908l-27.326,36.882c16.362,12.121,34.21,22.094,53.06,29.64
			L166.409,442.528z"/>
		<path d="M64.884,347.757c-7.136-14.768-12.338-30.416-15.462-46.512L4.36,309.99c3.88,19.981,10.337,39.407,19.195,57.736
			L64.884,347.757z"/>
		<path d="M73.945,164.582l-39.156-23.954c-10.627,17.375-18.978,36.053-24.813,55.521l43.966,13.186
			C58.645,193.643,65.377,178.591,73.945,164.582z"/>
		<path d="M0,264.47c0,6.236,0.245,12.527,0.729,18.696l45.759-3.577c-0.388-4.984-0.587-10.073-0.587-15.119
			c0-11.389,1.004-22.797,2.987-33.908L3.7,222.502C1.246,236.266,0,250.385,0,264.47z"/>
		<path d="M75.493,438.186l31.322-33.553c-12.014-11.215-22.552-23.926-31.319-37.781l-38.785,24.547
			C47.574,408.562,60.622,424.303,75.493,438.186z"/>
		<path d="M377.291,239.448l69.162,84.621c3.211,3.926,8.41,3.926,11.619,0l69.162-84.621c3.211-3.926,1.699-7.108-3.371-7.108
			h-50.834c-0.135-1.004-0.283-2.007-0.434-3.011c-0.074-0.493-0.139-0.988-0.215-1.478c-0.562-3.629-1.209-7.23-1.934-10.802
			c-0.066-0.336-0.145-0.67-0.211-1.007c-0.822-3.969-1.717-7.922-2.742-11.842l-0.045,0.012c-2.311-8.8-5.154-17.384-8.418-25.759
			l0.109-0.043c-7.359-18.932-17.158-36.891-29.129-53.382l-0.127,0.092c-5.312-7.307-10.998-14.324-17.084-20.973l0.098-0.088
			c-13.736-15.003-29.346-28.204-46.396-39.232l-0.088,0.135c-7.553-4.893-15.387-9.382-23.492-13.406l0.053-0.107
			c-14.627-7.249-29.98-12.932-45.766-17.014c-0.215-0.055-0.43-0.11-0.643-0.165c-3.686-0.942-7.385-1.824-11.115-2.586
			l-0.002,0.016c-8.764-1.799-17.715-3.054-26.797-3.856l0.006-0.061c-2.763-0.242-5.536-0.425-8.311-0.572
			c-0.633-0.034-1.267-0.046-1.897-0.077c-3.014-0.134-6.047-0.208-9.091-0.229c-0.588-0.003-1.166-0.046-1.753-0.046
			c-0.315,0-0.627,0.021-0.942,0.021c-3.18,0.012-6.347,0.092-9.504,0.229c-1.135,0.049-2.268,0.123-3.403,0.187
			c-2.405,0.138-4.801,0.312-7.194,0.523c-1.046,0.092-2.093,0.166-3.136,0.272c-3.069,0.309-6.126,0.686-9.171,1.114
			c-1.19,0.166-2.377,0.355-3.562,0.539c-0.902,0.141-1.812,0.26-2.711,0.41l0.009,0.052c-8.944,1.497-17.767,3.477-26.42,5.967
			l-0.003-0.009c-0.098,0.027-0.199,0.061-0.297,0.092c-1.86,0.539-3.708,1.117-5.554,1.701c-1.047,0.331-2.093,0.676-3.134,1.022
			c-6.414,2.126-12.723,4.528-18.923,7.2c-0.56,0.242-1.12,0.486-1.677,0.734c-6.359,2.797-12.592,5.872-18.69,9.229
			c-0.692,0.38-1.38,0.769-2.069,1.154c-1.824,1.025-3.641,2.06-5.438,3.133l0.024,0.043c-7.714,4.624-15.202,9.679-22.405,15.199
			l-0.03-0.04c-0.943,0.722-1.861,1.472-2.794,2.209c-0.896,0.707-1.802,1.404-2.687,2.124c-2.482,2.02-4.927,4.094-7.338,6.221
			c-0.649,0.572-1.282,1.153-1.925,1.732c-2.212,1.995-4.397,4.03-6.545,6.117c-0.278,0.27-0.569,0.521-0.848,0.792
			c-0.058,0.059-0.107,0.123-0.165,0.181c-7.451,7.323-14.431,15.129-20.87,23.372l36.182,28.241
			c5.462-7.001,11.42-13.596,17.791-19.765c2.298-2.225,4.636-4.395,7.022-6.49c0.63-0.554,1.279-1.08,1.916-1.625
			c2.313-1.98,4.664-3.904,7.057-5.765c6.157-4.789,12.546-9.198,19.174-13.167l0.003,0.006c1.319-0.79,2.656-1.545,3.993-2.304
			c0.784-0.443,1.57-0.884,2.359-1.318c1.441-0.79,2.886-1.57,4.345-2.323c0.309-0.159,0.625-0.306,0.937-0.465
			c2.904-1.475,5.845-2.87,8.819-4.189c0.848-0.376,1.695-0.75,2.546-1.114c1.441-0.615,2.886-1.227,4.342-1.806
			c1.303-0.52,2.622-1.006,3.935-1.496c1.903-0.71,3.816-1.389,5.741-2.038c1.264-0.425,2.534-0.841,3.807-1.239
			c1.19-0.373,2.38-0.747,3.58-1.099c7.95-2.316,16.068-4.116,24.318-5.386c0.817-0.125,1.634-0.254,2.454-0.37
			c2.534-0.355,5.08-0.67,7.635-0.927c0.765-0.076,1.53-0.131,2.298-0.199c2.017-0.178,4.033-0.324,6.056-0.44
			c0.872-0.049,1.741-0.104,2.613-0.144c2.577-0.11,5.159-0.177,7.751-0.187c0.691-0.003,1.383,0.012,2.075,0.018
			c2.5,0.016,4.994,0.08,7.488,0.19c0.468,0.021,0.939,0.031,1.405,0.055c35.71,1.891,68.864,13.589,96.796,32.46
			c0.086,0.058,0.17,0.119,0.254,0.177c5.625,3.813,11.035,7.917,16.213,12.286c1.727,1.459,3.428,2.947,5.102,4.464
			c0.121,0.113,0.248,0.224,0.369,0.336c27.408,24.97,47.562,57.767,56.91,94.814c0.684,2.735,1.338,5.48,1.9,8.25
			c0.006,0.028,0.012,0.058,0.018,0.086c0.436,2.124,0.787,4.275,1.152,6.423h-45.906
			C375.594,232.34,374.086,235.522,377.291,239.448z"/>
	</g>
</g>
<g>
</g>
<g>
</g>
<g>
</g>
<g>
</g>
<g>
</g>
<g>
</g>
<g>
</g>
<g>
</g>
<g>
</g>
<g>
</g>
<g>
</g>
<g>
</g>
<g>
</g>
<g>
</g>
<g>
</g>
</svg>
