<?xml version="1.0" encoding="utf-8"?>
<!-- Uploaded to SVGRepo https://www.svgrepo.com -->
<!DOCTYPE svg PUBLIC "-//W3C//DTD SVG 1.1//EN" "http://www.w3.org/Graphics/SVG/1.1/DTD/svg11.dtd">
<svg width="1000px" height="1000px" viewBox="0 0 1000 1000" version="1.1" xmlns="http://www.w3.org/2000/svg" xmlns:xlink="http://www.w3.org/1999/xlink" x="0px" y="0px" enable-background="new 0 0 1000 1000" xml:space="preserve">
<metadata> Svg Vector Icons : http://www.onlinewebfonts.com/icon </metadata>
<g><g transform="translate(0.000000,511.000000) scale(0.100000,-0.100000)"><path d="M849,4802.6c-344.7-84.2-665.4-418.9-731.6-763.6c-16-88.2-20-982.1-16-3297.1l6-3176.8l46.1-114.2c102.2-252.5,342.7-487,599.3-583.3c114.2-44.1,134.3-44.1,1455.1-50.1l1336.9-6v-408.9v-410.9H3174h-370.8v-300.6v-300.6H4998h2194.7v300.6v300.6h-370.8h-370.8v410.9v410.9h1270.7c779.7,0,1310.8,8,1376.9,20c360.8,68.2,703.5,402.9,777.7,757.6c30.1,142.3,32.1,6283.5,2,6439.8c-50.1,262.6-268.6,555.2-513.1,683.5c-230.5,124.3,46.1,116.2-4377.4,114.2C1885.3,4826.7,925.2,4820.7,849,4802.6z M9134.8,4193.3c38.1-18,88.2-60.1,110.2-90.2c42.1-56.1,42.1-66.1,48.1-2431.2l4-2373.1H4998H698.7l4,2373.1c6,2365.1,6,2375.1,48.1,2431.2c22.1,30.1,72.2,72.1,110.2,90.2c64.1,34.1,302.6,36.1,4136.9,36.1C8832.2,4229.4,9070.7,4227.4,9134.8,4193.3z M9293.2-1851.6c-6-519.1-8-553.2-48.1-607.3c-22.1-30.1-72.2-72.1-110.2-90.2c-64.1-34.1-302.7-36.1-4146.9-36.1c-3912.4,0-4082.8,2-4146.9,36.1c-134.3,72.2-142.3,108.2-142.3,709.5v537.1H4998h4301.2L9293.2-1851.6z M5849.8-3597.4v-410.9H4998h-851.8v410.9v410.9H4998h851.8V-3597.4z"/><path d="M2683,2966.7V2666h2315h2315v300.6v300.6H4998H2683V2966.7z"/><path d="M2683,1683.9v-300.6h2315h2315v300.6v300.6H4998H2683V1683.9z"/><path d="M2683,441.3V140.6h1152.5h1152.5v300.6v300.6H3835.5H2683V441.3z"/></g></g>
</svg>