<svg xmlns="http://www.w3.org/2000/svg" width="798" height="418" viewBox="0 0 798 418">
    <defs>
        <radialGradient id="a" cx="106.186%" cy="24.879%" r=".855%" fx="106.186%" fy="24.879%" gradientTransform="matrix(1 0 0 .8345 0 .041)">
            <stop offset="0%" stop-color="#1C70E1"/>
            <stop offset=".537%" stop-color="#1C70E1"/>
            <stop offset="100%" stop-color="#339EFF"/>
        </radialGradient>
        <radialGradient id="b" cx="77.254%" cy="70.22%" r="1.509%" fx="77.254%" fy="70.22%" gradientTransform="matrix(1 0 0 .45465 0 .383)">
            <stop offset="0%" stop-color="#1C70E1"/>
            <stop offset=".537%" stop-color="#1C70E1"/>
            <stop offset="100%" stop-color="#339EFF"/>
        </radialGradient>
        <radialGradient id="c" cx="-42.908%" cy="33.426%" r="2.11%" fx="-42.908%" fy="33.426%" gradientTransform="matrix(1 0 0 .20663 0 .265)">
            <stop offset="0%" stop-color="#FFF"/>
            <stop offset=".268%" stop-color="#FFF"/>
            <stop offset="100%" stop-color="#EAEAEA"/>
        </radialGradient>
        <radialGradient id="d" cx="99.416%" cy="50.002%" r="2.74%" fx="99.416%" fy="50.002%" gradientTransform="matrix(1 0 0 .2676 0 .366)">
            <stop offset="0%" stop-color="#FFF"/>
            <stop offset=".268%" stop-color="#FFF"/>
            <stop offset="100%" stop-color="#EAEAEA"/>
        </radialGradient>
        <radialGradient id="e" cx="41.049%" cy="87.788%" r="1.484%" fx="41.049%" fy="87.788%" gradientTransform="matrix(1 0 0 .84994 0 .132)">
            <stop offset="0%" stop-color="#FFF"/>
            <stop offset=".268%" stop-color="#FFF"/>
            <stop offset="100%" stop-color="#EAEAEA"/>
        </radialGradient>
        <linearGradient id="f" x1="50.002%" x2="50.002%" y1="79.515%" y2="-43.867%">
            <stop offset="0%" stop-color="#FFAE50"/>
            <stop offset="100%" stop-color="#FC0"/>
        </linearGradient>
        <linearGradient id="g" x1="60.064%" x2="115.674%" y1="57.957%" y2="99.491%">
            <stop offset="0%" stop-color="#FFAE50"/>
            <stop offset="100%" stop-color="#FC0"/>
        </linearGradient>
        <radialGradient id="h" cx="69.069%" cy="-33.672%" r="2.099%" fx="69.069%" fy="-33.672%" gradientTransform="matrix(.98612 0 0 1 .01 0)">
            <stop offset="0%" stop-color="#FF879B"/>
            <stop offset=".537%" stop-color="#FF879B"/>
            <stop offset="100%" stop-color="#FFD1D8"/>
        </radialGradient>
        <radialGradient id="i" cx="118.945%" cy="50.029%" r="3.205%" fx="118.945%" fy="50.029%" gradientTransform="matrix(1 0 0 .78195 0 .11)">
            <stop offset="0%" stop-color="#FF879B"/>
            <stop offset=".537%" stop-color="#FF879B"/>
            <stop offset="100%" stop-color="#FFD1D8"/>
        </radialGradient>
        <radialGradient id="j" cx="151.844%" cy="25.131%" r="4.984%" fx="151.844%" fy="25.131%" gradientTransform="matrix(.70227 0 0 1 .452 0)">
            <stop offset="0%" stop-color="#FF879B"/>
            <stop offset=".537%" stop-color="#FF879B"/>
            <stop offset="100%" stop-color="#FFD1D8"/>
        </radialGradient>
        <linearGradient id="k" x1="49.991%" x2="49.991%" y1="99.28%" y2="74.164%">
            <stop offset="0%" stop-color="#FF7390"/>
            <stop offset=".268%" stop-color="#FF7390"/>
            <stop offset="100%" stop-color="#FF879B"/>
        </linearGradient>
        <linearGradient id="l" x1="-10.218%" x2="65.091%" y1="69.2%" y2="50.64%">
            <stop offset="0%" stop-color="#FFAE50"/>
            <stop offset="100%" stop-color="#FC0"/>
        </linearGradient>
        <radialGradient id="m" cx="68.58%" cy="91.268%" r="1.185%" fx="68.58%" fy="91.268%" gradientTransform="matrix(.9732 0 0 1 .018 0)">
            <stop offset="0%" stop-color="#FFEB00"/>
            <stop offset="100%" stop-color="#FC0"/>
        </radialGradient>
        <radialGradient id="n" cx="25.525%" cy="16.051%" r="89.537%" fx="25.525%" fy="16.051%" gradientTransform="matrix(.93481 .11996 -.11296 .99278 .035 -.03)">
            <stop offset="0%" stop-color="#FF879B"/>
            <stop offset=".537%" stop-color="#FF879B"/>
            <stop offset="100%" stop-color="#FFD1D8"/>
        </radialGradient>
    </defs>
    <g fill="none" fill-rule="nonzero">
        <path fill="#CEE8FF" d="M545.1 50H407.8v3h137.3M545.1 59.4H407.8v3h137.3M545.1 68.8h-76.9v3h76.9M757.4 305.1l37.3 93.2 2.8-1.1-37.3-93.3"/>
        <path fill="#EAEAEA" d="M485.1 198.7l293.1 64.5-9.7 134.3 3 .2 9.9-136.9-295.7-65z"/>
        <path fill="#CEE8FF" d="M248.6 151.1h-83.3v3h83.3M292.7 139.3C281 125 274 106.7 274 86.7c0-23.1 9.3-44 24.5-59.1 15.1-15.1 36-24.5 59.1-24.5s44 9.3 59.1 24.5c15.1 15.1 24.5 36 24.5 59.1 0 20-7 38.3-18.7 52.6l2.3 1.9c12.1-14.9 19.3-33.9 19.3-54.5 0-47.8-38.7-86.5-86.5-86.5s-86.5 38.7-86.5 86.5c0 20.7 7.2 39.6 19.3 54.5l2.3-1.9z"/>
        <path fill="#EAEAEA" d="M422.8 165.6c-6.2-7.6-9.9-17.3-9.9-27.9 0-12.3 5-23.3 13-31.4 8-8 19.1-13 31.4-13 12.3 0 23.3 5 31.4 13 8 8 13 19.1 13 31.4 0 10.6-3.7 20.3-9.9 27.9l2.3 1.9c6.6-8.1 10.6-18.5 10.6-29.8 0-26.2-21.2-47.4-47.4-47.4s-47.4 21.2-47.4 47.4c0 11.3 4 21.7 10.6 29.8l2.3-1.9z"/>
        <path fill="#CEE8FF" d="M142.7 184.6c-9-3.3-18.7-5-28.8-5-46.5 0-84.2 37.7-84.2 84.2S67.4 348 113.9 348s84.2-37.7 84.2-84.2h-3c0 22.4-9.1 42.7-23.8 57.4-14.7 14.7-35 23.8-57.4 23.8s-42.7-9.1-57.4-23.8c-14.7-14.7-23.8-35-23.8-57.4s9.1-42.7 23.8-57.4c14.7-14.7 35-23.8 57.4-23.8 9.7 0 19.1 1.7 27.7 4.9l1.1-2.9z"/>
        <path fill="#EAEAEA" d="M102.9 132.2L23.4 396.6l2.9.8L105.7 133"/>
        <path fill="#CEE8FF" d="M.7 366.9h133.4v-3H.7"/>
        <path fill="#CEE8FF" d="M210.6 174c5.6-.9 11.4-1.5 17.3-1.7 1.8-.1 3.7-.1 5.5-.1 76.8 0 139.1 62.3 139.1 139.1 0 32.4-11 62.1-29.6 85.8h-219c-18.5-23.6-29.6-53.4-29.6-85.8 0-69.1 50.4-126.4 116.3-137.3z"/>
        <path fill="#A3D4FF" d="M317.1 238.5l-2.4 6.3h-30.4c12 .7 20.6 6.8 24.3 15.9 2.2 5.5 2.7 12 1.2 19.1h-92c-18.5 0-28.2-14.5-22.3-32.8.2-.8.5-1.5.8-2.3l2.4-6.2 25-64.5c5.6-.9 11.4-1.5 17.3-1.7 33.8 1.4 64.5 14.8 87.9 36.2l-11.8 30zM281.3 386.4l3.5 10.6h-68.7l10-25.9 32.5-84.3c.9-2.4 1.6-4.7 2.1-7H347.4c0 2.3-.1 4.6-.5 7l-12.3 103.7 25 1.9v4.6H303.2l-2.1-89.5-31.9 77.4c1.4.2 2.7.4 4.1.6 2.7.4 5.4.6 8 .9z"/>
        <path fill="url(#a)" d="M269.7 286.8c.9-2.4 1.6-4.7 2.1-7h-43.6c-18.5 0-28.2-14.5-22.3-32.8 4.5-1.5 9.3-2.3 14.1-2.3h72.3c13.3 0 22.8 6.3 26.8 16 2.9 7.2 2.9 16.3-.9 26.1l-37.8 98.1c-15.4-2.5-30.1-7.3-43.1-13.8l32.4-84.3z"/>
        <path fill="#444447" d="M237.1 371.1c13 6.5 27.6 11.3 43.1 13.8 1.4.2 2.7.4 4.1.6 2.7.4 5.4.6 8 .8l3.5 10.6h-68.7l10-25.8z"/>
        <path fill="url(#b)" d="M310.1 307.4l8-20.6c3.8-9.9 3.9-18.9.9-26.1-4-9.7-13.5-16-26.8-16h30.1c.9 0 1.9 0 2.8.1 21.6 1.5 36.3 19.8 32.9 42l-12.3 103.7-33.6-2.6-2-80.5z"/>
        <path fill="#444447" d="M345.7 390.5l25 1.9v4.6h-58.5l-.2-9.1z"/>
        <path fill="#1C70E1" d="M286.6 277.9L252.4 367l1.8.7 34.3-89.1"/>
        <path fill="#1C70E1" d="M239.6 364.6l43.2 13.4.6-1.9-43.2-13.4M346.6 376.8h-34.7v2h34.7M251.2 129.7c6-15.4 23.5-28.1 38.9-28.1h8.2c-.6 2.3-.3 5.1.9 8.1l16.3 40.1c3.5 8.4 13.4 15.3 22.1 15.3 8.7 0 12.9-6.8 9.5-15.2l-16.3-40.1c-1.2-3-3.3-5.8-5.8-8.2h6.4c5.6 0 15.7 4 24.1 9.5 10.6 4.6 20 13.2 23.9 23.1l20 50.2c5.8 14.7-2.6 26.7-18.6 26.7l-18.9.1c-7.1 0-14.6-2.3-21.3-6.2l-13 33.7H209l42.2-109z"/>
        <path fill="#339EFF" d="M209 238.5h118.5l-2.4 6.3-105.2-.1c-4.8 0-9.5.8-14.1 2.3.2-.8.5-1.5.8-2.3l2.4-6.2zM269 224l-37-9.9c-.5-.1-1.1.2-1.2.7-.1.5.2 1.1.7 1.2l37 9.9c.5.1 1.1-.2 1.2-.7.1-.5-.2-1-.7-1.2"/>
        <path fill="#1C70E1" d="M282.8 264.7h-35.9c-7.2 0-12.9-2.3-16.9-6-3.9-3.8-6.1-9.1-6.1-15.4 0-3.1.5-6.5 1.7-10l-1.9-.6c-1.2 3.7-1.8 7.2-1.8 10.6 0 6.8 2.4 12.7 6.7 16.9 4.4 4.2 10.6 6.6 18.3 6.6h35.9v-2.1z"/>
        <path fill="#000" d="M620.7 135.3v1h1v.8h1l.7-.7-2-1.8-.7.7v1-1l-.7.8 3.7 3.3v-5.1h-5.5l1.8 1.8z"/>
        <path fill="#FFF" d="M607 135.3h26.3c4.6 0 8.4 3.8 8.4 8.4V169c0 4.6-3.8 8.4-8.4 8.4H607c-1.5 0-2.8-1.3-2.8-2.8V138c0-1.4 1.2-2.7 2.8-2.7z"/>
        <path fill="#F9DAC5" d="M635.5 187.9h45.6l-36.5-33.7-23.9-1.4z"/>
        <path fill="url(#c)" d="M706.8 169h.4c18.5 0 33.7 15.2 33.7 33.7l13.3 195.7H712L706.8 169z"/>
        <path fill="url(#d)" d="M577 305.4V202.7c0-18.5 15.2-33.7 33.7-33.7h2.8l-5 136.4H577z"/>
        <path fill="url(#e)" d="M625.8 248.3l1.4-79.3h2.8c-.2 1.6-.3 3.2-.3 4.9 0 20.6 13.1 37.4 29.3 37.4 16.2 0 29.3-16.7 29.3-37.4 0-1.7-.1-3.3-.3-4.9h4.2l1 79.3h-67.4z"/>
        <path fill="#F9DAC5" d="M688.2 173.9c0 20.6-13.1 37.4-29.3 37.4-16.2 0-29.3-16.7-29.3-37.4 0-1.7.1-3.3.3-4.9H688c.1 1.6.2 3.2.2 4.9z"/>
        <path fill="url(#f)" d="M613.5 169h13.6l-1.3 71.1h67.3l-1-71.1h14.7l4 103-101.2 4z"/>
        <path fill="url(#g)" d="M710.8 272l1.2 126.4H608.6l1-122.4z"/>
        <path fill="#A67C52" d="M609.7 277l101.1-4-.1-2-101.1 4"/>
        <path fill="#444447" d="M610.7 166.9c0-1.2-.9-2.1-2.1-2.1h-4.5V160h10.1c4.6 0 8.4-3.8 8.4-8.4v-14.4l18.9 17.5v14.4c0 4.6-3.8 8.4-8.4 8.4H607c-1.5 0-2.8-1.3-2.8-2.8V169h4.5c1.1 0 2-1 2-2.1z"/>
        <path fill="#FFE0C8" d="M607 135.3h13.8l2 1.8v14.4c0 4.6-3.8 8.4-8.4 8.4h-12.2l2.1-21.8c2-1.5 1.1-2.8 2.7-2.8z"/>
        <path fill="#444447" d="M614.6 150.1l-7-1.4c-.5-.1-1.1.2-1.2.8-.1.5.2 1.1.8 1.2l7 1.4c.5.1 1.1-.2 1.2-.8.1-.6-.2-1.1-.8-1.2M691.6 255.8c0 3.3 2.6 5.9 5.9 5.9 3.3 0 5.9-2.6 5.9-5.9 0-3.3-2.6-5.9-5.9-5.9-3.3 0-5.9 2.7-5.9 5.9zM619.8 257.5c0 3.3 2.6 5.9 5.9 5.9 3.3 0 5.9-2.6 5.9-5.9 0-3.3-2.6-5.9-5.9-5.9-3.3 0-5.9 2.6-5.9 5.9z"/>
        <path fill="#A67C52" d="M624 136.6h12c5.3 0 9.6 4.3 9.6 9.6v15.3L610.9 135l13.1 1.6z"/>
        <path fill="#FFAE50" d="M601.5 140.8l41 3.2-48.6 1.5z"/>
        <path fill="#FFAE50" d="M600.1 133.2c0-10.3 8.4-18.8 18.8-18.8l9.8.7c10.3 0 18.8 8.4 18.8 18.8v9.1c0 .7 0 1.5-.1 2.2l-47.2-4.3v-7.7h-.1z"/>
        <path fill="#A67C52" d="M649.3 139.8l-52.2-6.4-.1 1h1c0-6.3 2.3-12 5.9-16.1 3.6-4.1 8.6-6.6 14-6.6h.1c.6 0 1-.4 1-1s-.4-1-1-1h-.1c-6.1 0-11.6 2.8-15.5 7.3-4 4.5-6.4 10.6-6.4 17.4v.9l53 6.5c.5.1 1-.3 1.1-.9.1-.5-.2-1-.8-1.1zM596.5 140.4l25.8 1.4c.6 0 1-.4 1.1-.9 0-.6-.4-1-.9-1.1l-25.8-1.4c-.6 0-1 .4-1.1.9-.1.6.4 1.1.9 1.1"/>
        <path fill="#FFE0C8" d="M632.8 148.2c1.5 0 2.8 1.3 2.8 2.8v6.3c0 1.5-1.3 2.8-2.8 2.8h-3.7v-11.9h3.7z"/>
        <path fill="#A67C52" d="M648.2 188.7c0 2.7 2.2 5 5 5 2.7 0 5-2.2 5-5 0-.6-.4-1-1-1s-1 .4-1 1c0 1.6-1.3 3-3 3-1.6 0-3-1.3-3-3 0-.6-.4-1-1-1s-1 .5-1 1z"/>
        <path fill="#F7F7F7" d="M314.9 360.4l-59.4-146h279.4l59.4 146H314.9"/>
        <path fill="#CEE8FF" d="M531.5 219.4l55.3 136H318.2l-55.3-136h268.6zm6.7-10H248.1l63.5 156h290.2l-63.6-156z"/>
        <path fill="#FFF" d="M298.3 101.6h26.6c2.5 2.4 4.6 5.2 5.8 8.2l16.3 40.1c.4 1.1.8 2.1 1 3.2l-16.8-19.8 2-3.6-7.5-5.8-3.8 7.8 3.7 2.8-3.3 24.5c-3-2.5-5.4-5.7-6.8-9l-16.3-40.1c-1.2-3.2-1.4-5.9-.9-8.3z"/>
        <path fill="#FF3E5D" d="M321.9 131.6l3.8-7.8 7.5 5.8-2 3.6L348 153c1.3 6.9-2.9 12.1-10.4 12.1-5.2 0-10.9-2.5-15.3-6.3l3.3-24.5-3.7-2.7z"/>
        <path fill="#444447" d="M317.4 89.8c0 2.1 1.7 3.7 3.7 3.7s3.7-1.7 3.7-3.7-1.7-3.7-3.7-3.7-3.7 1.7-3.7 3.7z"/>
        <path fill="#1C70E1" d="M274.3 145.8c7.6 0 14.1-4.7 16.9-11.3l13 32-18 40.1-28.3-69.9c-1.3-3.2-1.8-6.2-1.8-8.9.1 10 8.2 18 18.2 18z"/>
        <path fill="#1C70E1" d="M274.3 109.3c10.1 0 18.2 8.2 18.2 18.2 0 2.5-.5 4.8-1.4 6.9-2.7 6.6-9.3 11.3-16.9 11.3-10 0-18.1-8-18.2-18v-.2c.1-10 8.2-18.2 18.3-18.2z"/>
        <path fill="url(#h)" d="M351.3 71.6l10.5 4.2c3.3 1.3 4.9 5.1 3.6 8.5l-6.6 23.5h-3.5l-2 6.9c-1 2.5-3.8 3.7-6.3 2.7l-25.4-10.2c-3.3-1.3-4.9-5.1-3.6-8.5l6.1-15.2c4.2-10.8 16.5-16.2 27.2-11.9z"/>
        <path fill="#FFD1D8" d="M298.4 101.6l25.3-9.8 11.2 13.3-9.2 18.7-26.6-20.7z"/>
        <path fill="#444447" d="M322.2 82.6c3.7-11.6 15.4-17.8 26.1-13.7.8-.4 1.7-.7 2.7-.7 2.1 0 4 1.1 5 2.8 1.4-.8 3-1.2 4.6-1.2 5.3 0 9.5 4.3 9.5 9.5s-4.3 9.5-9.5 9.5c-4.4 0-8.1-3-9.2-7.1l-1.2-.3c-6.6-1.4-7.2 5.7-7.2 5.7l-3.1 13.8-21-7.9 3.3-10.4z"/>
        <path fill="#FFD1D8" d="M334.7 100.3l-2.4-.7c-1.5-.5-2.3-2-1.9-3.5l1.7-5.6c.5-1.5 2-2.3 3.5-1.9l4.2 1.3-5.1 10.4z"/>
        <path fill="#1C70E1" d="M304.1 166.5l3.2-7.2 35.2 17.1-31.3 60.4-.5 1.1c-1.2 2.1-3.4 3.5-6 3.5-.3 0-.7 0-1-.1-2.2-.3-4.1-1.7-5.1-3.6l-.1-.1-.4-1-12.1-30 18.1-40.1z"/>
        <path fill="#339EFF" d="M291.5 127.6c0 2.3-.5 4.5-1.3 6.5l-.2.4 13.5 33.5c.2.5.8.8 1.3.6.5-.2.8-.8.6-1.3l-13.3-33.1-.9.4.9.4c.9-2.3 1.4-4.7 1.4-7.3 0-.6-.4-1-1-1-.5-.1-1 .3-1 .9z"/>
        <path fill="#339EFF" d="M341.7 176l-31.3 60.5-.5 1.1.9.4-.9-.5c-1 1.8-2.9 3-5.1 3-.3 0-.6 0-.9-.1-1.9-.3-3.5-1.5-4.3-3.1l-.9.5.9-.4-.1-.1-.4-1-12.1-30-28.3-69.9c-1.2-2.9-1.7-5.6-1.7-8.1v-.4c0-.6-.4-1-1-1s-1 .4-1 1v.4c0 2.8.6 5.8 1.9 8.9l28.3 69.9 12.1 30 .4 1 .1.2c1.1 2.2 3.3 3.8 5.8 4.1.4.1.7.1 1.2.1 2.9 0 5.5-1.6 6.8-4l.5-1.1 31.3-60.4c.3-.5.1-1.1-.4-1.3-.4-.4-1-.2-1.3.3z"/>
        <path fill="#1C70E1" d="M356.2 96.6l-5.5-1.4c-.5-.1-1.1.2-1.2.7-.1.5.2 1.1.7 1.2l5.5 1.4c.5.1 1.1-.2 1.2-.7.2-.6-.2-1.1-.7-1.2M293.3 193l14.8-32.8"/>
        <path fill="#339EFF" d="M294.2 193.4l14.8-32.8c.2-.5 0-1.1-.5-1.3-.5-.2-1.1 0-1.3.5l-14.8 32.8c-.2.5 0 1.1.5 1.3.5.3 1.1 0 1.3-.5M287.7 108.6l11.3 20.6-1.5 3.7 12.1 22c.3.5.9.7 1.4.4.5-.3.7-.9.4-1.4l-11.6-21.1 1.5-3.7-11.7-21.4c-.3-.5-.9-.7-1.4-.4-.6.2-.8.8-.5 1.3zM346.3 123.1l6.3 26.4c.1.5.7.9 1.2.7.5-.2.9-.7.7-1.2l-6.3-26.4c-.1-.5-.7-.9-1.2-.7-.5.1-.9.6-.7 1.2"/>
        <path fill="url(#i)" d="M310.4 154.5l-.1-.1 9.3-10.6c.9-1.9 2.8-3.2 5-3.2 3 0 5.4 2.4 5.5 5.3h.1l1.1 6.5c3.8 2.8 6.2 7.4 6.2 12.5 0 8.6-7 15.6-15.6 15.6s-15.6-7-15.6-15.6c.1-4 1.6-7.7 4.1-10.4z"/>
        <path fill="#FFF" d="M407.9 257.7h47.8l5.1 43.9h-58z"/>
        <path fill="#1C70E1" d="M407.9 257.7v1.5h46.5l4.7 40.9h-54.6l4.9-42.2-1.5-.2v1.5-1.5l-1.5-.2-5.3 45.6h61.4l-5.5-46.9h-50.4l-.2 1.3z"/>
        <path fill="#FFF" d="M333.2 270.1h206c3.3 0 6-2.7 6-6V149.4c0-3.3-2.7-6-6-6h-206c-3.3 0-6 2.7-6 6v114.7c0 3.3 2.7 6 6 6"/>
        <path fill="#1C70E1" d="M333.2 270.1v1.5h206c4.1 0 7.5-3.4 7.5-7.5V149.4c0-4.1-3.4-7.5-7.5-7.5h-206c-4.1 0-7.5 3.4-7.5 7.5v114.7c0 4.1 3.4 7.5 7.5 7.5v-3c-1.2 0-2.4-.5-3.2-1.3-.8-.8-1.3-1.9-1.3-3.2V149.4c0-1.2.5-2.4 1.3-3.2.8-.8 1.9-1.3 3.2-1.3h206c1.2 0 2.4.5 3.2 1.3.8.8 1.3 1.9 1.3 3.2v114.7c0 1.2-.5 2.4-1.3 3.2-.8.8-1.9 1.3-3.2 1.3h-206v1.5"/>
        <path fill="#FFD1D8" d="M332.2 139.2c1-.2 2 .1 2.8.7l11.6 6.9v17.7s-3-1-3.8-5.3l-1.9-9-7.3-2.7-3.8-1.4-.1-1.1c-.3-.4-.6-1-.6-1.5-.3-2 1-3.9 3.1-4.3z"/>
        <path fill="url(#j)" d="M341.7 138.6c1.1-.2 2.2.1 3 .8l22.4 18.1s-2.6 3.1-8.6-1.1l-18.2-11c-.9-.6-1.5-1.5-1.7-2.5-.4-2.1 1-4 3.1-4.3z"/>
        <path fill="#FFD1D8" d="M325.7 141c1 0 1.8.4 2.5.9l10.5 8.9-2.9 17.4s-3.3-1.9-3.2-5.9l.1-10.1-6.8-3.8-3.4-1.9-.1-.2c-.2-.5-.4-1.1-.4-1.7-.1-1.9 1.6-3.6 3.7-3.6z"/>
        <path fill="#FFD1D8" d="M316.5 148.9c0-1.9 1.5-3.4 3.4-3.4.7 0 1.4.2 1.9.6l10.8 6.3-1.6 14.4s-3.4-1.7-3.4-4.6v-5.8l-9.1-4.3c-1.1-.6-2-1.8-2-3.2z"/>
        <path fill="#1C70E1" d="M356.3 192.2h52.4c.8 0 1.5-.7 1.5-1.5s-.7-1.5-1.5-1.5h-52.4c-.8 0-1.5.7-1.5 1.5 0 .9.7 1.5 1.5 1.5M356.3 201.7h52.4c.8 0 1.5-.7 1.5-1.5s-.7-1.5-1.5-1.5h-52.4c-.8 0-1.5.7-1.5 1.5s.7 1.5 1.5 1.5M356.3 211.1h29.3c.8 0 1.5-.7 1.5-1.5s-.7-1.5-1.5-1.5h-29.3c-.8 0-1.5.7-1.5 1.5s.7 1.5 1.5 1.5"/>
        <path fill="#3CD33C" d="M481.3 200.2h-1.5c0 6.4-2.6 12.1-6.7 16.3-4.2 4.2-9.9 6.7-16.3 6.7s-12.1-2.6-16.3-6.7c-4.2-4.2-6.7-9.9-6.7-16.3s2.6-12.1 6.7-16.3c4.2-4.2 9.9-6.7 16.3-6.7s12.1 2.6 16.3 6.7c4.2 4.2 6.7 9.9 6.7 16.3h3c0-14.4-11.7-26-26-26-14.4 0-26 11.7-26 26 0 14.4 11.7 26 26 26 14.4 0 26-11.7 26-26h-1.5z"/>
        <path fill="#3CD33C" d="M441.7 202.1l8.8 8.8 21.4-19.7c.6-.6.6-1.5.1-2.1-.6-.6-1.5-.6-2.1-.1l-19.2 17.8-6.8-6.8c-.6-.6-1.5-.6-2.1 0-.6.5-.6 1.5-.1 2.1z"/>
        <path fill="#A67C52" d="M403.7 308.6l9.3 13.1-3.5 4.4s-3.6-7.1-6.1-12c-2.5-4.9.3-5.5.3-5.5z"/>
        <path fill="#A67C52" d="M401.9 315.3l3 4.4 5.4-1.6c3.9 3.3 6.9 6.9 6.9 11.1 0 2 .9 4.8 3.6 6.6l-21.4 8.6.3-.3-11.2-15.2c1.9-6.2 7-12.5 13.4-13.6z"/>
        <path fill="#A67C52" d="M377.5 314.1l.4.7 2.8 6.6 10.5 10 16.7-9.7-6.6-7.9-5.1-7.3-9.2-2.8-3.6-3.2c-5 .8-4.6 8.3-4.6 8.3l8.8 13.8-4.7-3.8-2.5-4.6c-.3-.6-.9-1-1.6-.9-.6 0-1.1.4-1.3.8zm12.9-6.4l2.8 1.5 3.8 6.3-6.6-7.8z"/>
        <path fill="#C69C6D" d="M390.7 320.4L379.8 304c-.2-.2-.5-.3-.7-.1-.2.2-.3.5-.1.7l10.9 16.4c.2.2.5.3.7.1.2-.2.2-.5.1-.7M393.7 317.5l-12.4-16.2c-.2-.2-.5-.3-.7-.1-.2.2-.3.5-.1.7l12.4 16.2c.2.2.5.3.7.1.2-.2.3-.5.1-.7M377.3 314.5l.9 1.2c.3.4 1 .5 1.4.2.4-.3.5-1 .2-1.4l-.9-1.2c-.3-.4-1-.5-1.4-.2-.4.3-.5.9-.2 1.4"/>
        <path fill="#A67C52" d="M677.1 321.5l31 6.5.4-2-31-6.5M677.1 327.5l31 6.5.4-2-31-6.5"/>
        <path fill="#FFF" d="M457.1 295.2h-52"/>
        <path fill="#1C70E1" d="M457.1 294.2h-52c-.6 0-1 .4-1 1s.4 1 1 1h52c.6 0 1-.4 1-1s-.4-1-1-1"/>
        <path fill="url(#k)" d="M538.1 398.3H558h-19.9m21-169.4c-1 11.8-3.6 18.4-8.8 23.4-1.1 1.1-2.3 2.1-3.7 3-.9.7-1.9 1.3-3 2-1.7 1-3.5 2-5.5 3l-2.4 8.2v.2c8 3.6 13.9 11.1 15.1 20.1 9.7 3.1 16.7 12.2 16.7 22.9v.8l.1.1 18.3 85.7h75.4l-42.8-127.9c-16.8-18.7-37.2-33.2-59.4-41.5"/>
        <path fill="#F76F8F" d="M606.2 273.6L633 397.2l2-.5-26.8-123.5M577.5 315.2l17.8 82 2-.5-17.8-81.9"/>
        <path fill="#FFD1D8" d="M538.4 184.3h-17c-2.8 0-5.1 2.3-5.1 5.1v33.2c0 2.1 1.7 3.8 3.8 3.8h9.9c13 0 23.7-10.7 23.7-23.7v-3.1c.1-8.4-6.9-15.3-15.3-15.3z"/>
        <path fill="#FFD1D8" d="M561.7 230c-1.5 15.8-10.5 24.7-24 30.7l-10.6-51.1 17.1-2.7 10.6 20.3 6.9 2.8z"/>
        <path fill="#A67C52" d="M535.1 216.1l5.2-23.2-26.8 1.3v-4.4c0-7.1 5.9-11.8 13-10.5l19.6 3.5c7.1 1.3 13 8.1 13 15.1l.8 30.1c-7.3-.4-12.2-2.1-15.8-8.7l-1.3-3.9-7.7.7z"/>
        <path fill="#FFD1D8" d="M541 218.1h.3c3.7 0 6.8-3.1 6.8-6.8 0-3.7-3.1-6.8-6.8-6.8h-.3v13.6zM513.5 212.5h11l-.1-10.5h-8.2z"/>
        <path fill="#A67C52" d="M520.1 203.5l8.4.8c.8.1 1.6-.5 1.6-1.3.1-.8-.5-1.6-1.3-1.6l-8.4-.8c-.8-.1-1.6.5-1.6 1.3-.1.8.5 1.5 1.3 1.6"/>
        <path fill="#444447" d="M520.7 204.3c0 1.3 1 2.3 2.3 2.3 1.3 0 2.3-1 2.3-2.3 0-1.3-1-2.3-2.3-2.3-1.2 0-2.3 1-2.3 2.3z"/>
        <path fill="#A67C52" d="M483 274.8l5.2-34c.8-3.5 4.3-3.3 7.6-3.3H506.9c10.9 0 19.8 9.2 19.8 20.5s-8.9 20.5-19.8 20.5c-2.7 0-3.3.4-5.6-.6h-15.9c-1.8 0-2.8-1.4-2.4-3.1"/>
        <path fill="#444447" d="M484.2 254.1c0 1.3 1 2.3 2.3 2.3 1.3 0 2.3-1 2.3-2.3 0-1.3-1-2.3-2.3-2.3-1.2 0-2.3 1-2.3 2.3z"/>
        <path fill="#FC0" d="M423.7 332.4l10.9 26.5 13.3-49.1c3.6-14.2 11-19.4 18.4-21.2 2.1-.6 4.3-.9 6.5-.9H543.5c13.3 0 24.1 10.8 24.1 24.1v.8l.1.1 18.3 85.7-125.5-.2-.3.7c-2.7 10-10.9 18.2-20.9 18.2-7.7 0-13.4-5.4-16-11.6L396 339.3l27.7-6.9"/>
        <path fill="#FFAE50" d="M427.9 387.1l7.6-27.9c.1-.5-.2-1.1-.7-1.2-.5-.1-1.1.2-1.2.7l-7.6 27.9c-.1.5.2 1.1.7 1.2.5.1 1.1-.2 1.2-.7"/>
        <path fill="#A3D4FF" d="M141.8 246l35.3-2 6-121.8h-49.3z"/>
        <path fill="#A3D4FF" d="M159.4 153.6v-102h-2v102M136.7 110.8c-5.7-2.9-9.4-8.1-10.7-13.9 5.4-2.4 11.8-2.3 17.5.6 5.7 2.9 9.4 8.1 10.7 13.9-5.4 2.3-11.8 2.3-17.5-.6zM136.7 82.8c-5.7-2.9-9.4-8.1-10.7-13.9 5.4-2.4 11.8-2.3 17.5.6 5.7 2.9 9.4 8.1 10.7 13.9-5.4 2.3-11.8 2.3-17.5-.6zM181.5 69.3c5.7-2.9 9.4-8.1 10.7-13.9-5.4-2.4-11.8-2.3-17.5.6-5.7 2.9-9.4 8.1-10.7 13.9 5.4 2.3 11.8 2.3 17.5-.6zM181.5 95.8c5.7-2.9 9.4-8.1 10.7-13.9-5.4-2.4-11.8-2.3-17.5.6-5.7 2.9-9.4 8.1-10.7 13.9 5.4 2.3 11.8 2.3 17.5-.6z"/>
        <path fill="#1C70E1" d="M271.3 278.8H118.1c-.8 0-1.5.7-1.5 1.5s.7 1.5 1.5 1.5h153.1c.8 0 1.5-.7 1.5-1.5.1-.8-.6-1.5-1.4-1.5"/>
        <path fill="#CEE8FF" d="M159.9 234.5V132.6h-1v101.9M168.9 234.6l2-102h-1l-2 101.9M150.9 234.5l-2-101.9h-1l2 102M221.7 24v128.6h3V24"/>
        <path fill="#EAEAEA" d="M68.9 396.9L55.4 249.8l-3 .3 13.5 147"/>
        <path fill="#FFF" d="M335.2 321.8h1.3c4.4 0 8-3.6 8-8v-10.7c0-4.4-3.6-8-8-8h-1.3c-4.4 0-8 3.6-8 8v10.7c0 4.4 3.6 8 8 8z"/>
        <path fill="#1C70E1" d="M335.2 321.8v1.5h1.3c5.2 0 9.5-4.3 9.5-9.5v-10.7c0-5.2-4.3-9.5-9.5-9.5h-1.3c-5.2 0-9.5 4.3-9.5 9.5v10.7c0 5.2 4.3 9.5 9.5 9.5v-3c-1.8 0-3.4-.7-4.6-1.9a6.42 6.42 0 0 1-1.9-4.6v-10.7c0-1.8.7-3.4 1.9-4.6 1.2-1.2 2.8-1.9 4.6-1.9h1.3c1.8 0 3.4.7 4.6 1.9 1.2 1.2 1.9 2.8 1.9 4.6v10.7c0 1.8-.7 3.4-1.9 4.6a6.42 6.42 0 0 1-4.6 1.9h-1.3v1.5z"/>
        <path fill="url(#l)" d="M493.4 398.3c0-21.9-9.3-40-21.5-43.3l-11.7 43.2 33.2.1z"/>
        <path fill="#FFAE50" d="M474.8 340.6l-15.4 56.9c-.1.5.2 1.1.7 1.2.5.1 1.1-.2 1.2-.7l15.4-56.9c.1-.5-.2-1.1-.7-1.2-.5-.1-1 .2-1.2.7"/>
        <path fill="url(#m)" d="M542.6 313.9c-28.5 0-47.6 36.4-42.5 69.5.8 5.3 2.2 10.3 4.1 14.8l81.8.1-15.7-73.5c-8.6-6.8-18.1-10.9-27.7-10.9z"/>
        <path fill="#444447" d="M486.6 240.7c0-4.5 3.6-8.1 8.1-8.1 2.6 0 4.9 1.2 6.4 3.1 2.4-1 5-1.5 7.7-1.5 11.4 0 20.6 9.2 20.6 20.6 0 .6 0 1.2-.1 1.8 3.5 3 5.8 7.2 6.4 12 9.1 4 15.5 13.1 15.5 23.7 0 2.4-.3 4.7-1 7 8.4 2 14.6 9.5 14.6 18.4 0 1.8-.3 3.6-.7 5.2h-74.2l6.4-58.8c1-.7 1.7-1.9 1.7-3.3 0-3.9-3.4-2.7-4.9-1.3-.5.5-2.7 3.1-3.3 3.4l6.1-14.3c-.4.1-.7.1-1.1.1-4.6.1-8.2-3.5-8.2-8"/>
        <path fill="#676769" d="M539.4 301.9c-.2 0-.4.2-.5.4-.1.3.1.5.4.6l7.1 1.7c4.3 1 7.5 4.4 8.2 8.7 0 .2.3.4.5.4h.1c.3 0 .5-.3.4-.6-.8-4.6-4.3-8.4-9-9.5l-7.1-1.7h-.1m-11-23.4c-.2 0-.4.1-.4.3-.1.2 0 .5.2.7 4.6 2.5 7.7 8.2 7.7 14.5 0 .3.2.5.5.5s.5-.2.5-.5c0-6.7-3.2-12.7-8.2-15.4-.2-.1-.3-.1-.3-.1m-.9-6.6c-.2 0-.4.1-.5.3-.1.3 0 .5.3.7l3.7 1.6c6.4 2.8 10.5 9.1 10.5 16 0 1.6-.2 3.2-.7 4.7-.1.3.1.5.3.6h.1c.2 0 .4-.1.5-.4.5-1.6.7-3.3.7-5 0-7.4-4.4-14-11.1-16.9l-3.7-1.6h-.1M508 240.8c-.3 0-.5.2-.5.5s.2.5.5.5c3.4 0 6.5 1.4 8.8 3.6 2.2 2.2 3.6 5.3 3.6 8.8 0 .3 0 .7-.1 1.1l-.3 3.8 2.9 2.5c2 1.8 3.3 4.2 3.7 6.9 0 .3.2.4.5.4h.1c.3 0 .5-.3.4-.6-.4-2.9-1.8-5.6-4-7.5l-2.5-2.2.3-3.3c0-.4.1-.8.1-1.2-.1-7.3-6.1-13.3-13.5-13.3"/>
        <path fill="url(#n)" d="M534.6 206.9c-7.7-.5-14.4 5.3-14.9 13.1l14 .9.9-14z"/>
    </g>
</svg>
