<svg width="84" height="84" fill="none" xmlns="http://www.w3.org/2000/svg"><circle cx="50" cy="48" r="24" fill="#E4F7FF"/><path d="M41 27h8a1 1 0 000-2h-8a1 1 0 000 2zM41 19h8a1 1 0 000-2h-8a1 1 0 000 2zM23 19a1 1 0 100-2.001A1 1 0 0023 19zM19 51h-4c-1.654 0-3 1.346-3 3v4c0 1.654 1.346 3 3 3h4c1.654 0 3-1.346 3-3v-4c0-1.654-1.346-3-3-3zm1 7c0 .552-.45 1-1 1h-4c-.55 0-1-.448-1-1v-4c0-.552.45-1 1-1h4c.55 0 1 .448 1 1v4zM23 27a1 1 0 100-2.001A1 1 0 0023 27zM37 51h-4c-1.654 0-3 1.346-3 3v4c0 1.654 1.346 3 3 3h4c1.654 0 3-1.346 3-3v-4c0-1.654-1.346-3-3-3zm1 7c0 .552-.45 1-1 1h-4c-.55 0-1-.448-1-1v-4c0-.552.45-1 1-1h4c.55 0 1 .448 1 1v4zM17 49a1 1 0 001-1v-4c0-1.654 1.346-3 3-3h13v7a1 1 0 002 0v-7h13c1.654 0 3 1.346 3 3v4a1 1 0 002 0v-4c0-2.756-2.242-5-5-5H36v-5a1 1 0 00-2 0v5H21c-2.758 0-5 2.244-5 5v4a1 1 0 001 1zM55 51h-4c-1.654 0-3 1.346-3 3v4c0 1.654 1.346 3 3 3h4c1.654 0 3-1.346 3-3v-4c0-1.654-1.346-3-3-3zm1 7c0 .552-.45 1-1 1h-4c-.55 0-1-.448-1-1v-4c0-.552.45-1 1-1h4c.55 0 1 .448 1 1v4z" fill="#fff"/><path d="M21 31h30c1.654 0 3-1.346 3-3v-4c0-.77-.3-1.468-.78-2 .48-.532.78-1.23.78-2v-4c0-1.654-1.346-3-3-3H21c-1.654 0-3 1.346-3 3v4c0 .77.3 1.468.78 2-.48.532-.78 1.23-.78 2v4c0 1.654 1.346 3 3 3zm-1-15c0-.552.45-1 1-1h30c.55 0 1 .448 1 1v4c0 .552-.45 1-1 1H21c-.55 0-1-.448-1-1v-4zm0 8c0-.552.45-1 1-1h30c.55 0 1 .448 1 1v4c0 .552-.45 1-1 1H21c-.55 0-1-.448-1-1v-4z" fill="#fff"/><path d="M40 26h8a1 1 0 000-2h-8a1 1 0 000 2zM40 18h8a1 1 0 000-2h-8a1 1 0 000 2zM22 18a1 1 0 100-2.001A1 1 0 0022 18zM18 50h-4c-1.654 0-3 1.346-3 3v4c0 1.654 1.346 3 3 3h4c1.654 0 3-1.346 3-3v-4c0-1.654-1.346-3-3-3zm1 7c0 .552-.45 1-1 1h-4c-.55 0-1-.448-1-1v-4c0-.552.45-1 1-1h4c.55 0 1 .448 1 1v4zM22 26a1 1 0 100-2.001A1 1 0 0022 26zM36 50h-4c-1.654 0-3 1.346-3 3v4c0 1.654 1.346 3 3 3h4c1.654 0 3-1.346 3-3v-4c0-1.654-1.346-3-3-3zm1 7c0 .552-.45 1-1 1h-4c-.55 0-1-.448-1-1v-4c0-.552.45-1 1-1h4c.55 0 1 .448 1 1v4zM16 48a1 1 0 001-1v-4c0-1.654 1.346-3 3-3h13v7a1 1 0 002 0v-7h13c1.654 0 3 1.346 3 3v4a1 1 0 002 0v-4c0-2.756-2.242-5-5-5H35v-5a1 1 0 00-2 0v5H20c-2.758 0-5 2.244-5 5v4a1 1 0 001 1zM54 50h-4c-1.654 0-3 1.346-3 3v4c0 1.654 1.346 3 3 3h4c1.654 0 3-1.346 3-3v-4c0-1.654-1.346-3-3-3zm1 7c0 .552-.45 1-1 1h-4c-.55 0-1-.448-1-1v-4c0-.552.45-1 1-1h4c.55 0 1 .448 1 1v4z" fill="#09A4E7"/><path d="M20 30h30c1.654 0 3-1.346 3-3v-4c0-.77-.3-1.468-.78-2 .48-.532.78-1.23.78-2v-4c0-1.654-1.346-3-3-3H20c-1.654 0-3 1.346-3 3v4c0 .77.3 1.468.78 2-.48.532-.78 1.23-.78 2v4c0 1.654 1.346 3 3 3zm-1-15c0-.552.45-1 1-1h30c.55 0 1 .448 1 1v4c0 .552-.45 1-1 1H20c-.55 0-1-.448-1-1v-4zm0 8c0-.552.45-1 1-1h30c.55 0 1 .448 1 1v4c0 .552-.45 1-1 1H20c-.55 0-1-.448-1-1v-4z" fill="#09A4E7"/></svg>